<?xml version="1.0" encoding="UTF-8"?>
<svg version="1.1" xmlns="http://www.w3.org/2000/svg" width="144" height="144">
<path d="M0 0 C47.52 0 95.04 0 144 0 C144 47.52 144 95.04 144 144 C96.48 144 48.96 144 0 144 C0 96.48 0 48.96 0 0 Z " fill="#444B52" transform="translate(0,0)"/>
<path d="M0 0 C28.05 0 56.1 0 85 0 C82.01772928 5.36808729 79.25077969 10.30753695 75.828125 15.3125 C75.46023865 15.85229492 75.09235229 16.39208984 74.71331787 16.94824219 C73.94886755 18.0684542 73.1826106 19.18743549 72.41455078 20.30517578 C71.23462529 22.02237553 70.06023763 23.74326089 68.88671875 25.46484375 C63.16171288 33.83828712 63.16171288 33.83828712 62 35 C60.1903226 35.12330088 58.37592163 35.17790183 56.56225586 35.20532227 C55.40112778 35.22526749 54.23999969 35.24521271 53.04368591 35.26576233 C51.780168 35.28247482 50.51665009 35.29918732 49.21484375 35.31640625 C47.92888809 35.33718735 46.64293243 35.35796844 45.31800842 35.37937927 C41.89364096 35.43466176 38.4692125 35.48404361 35.04473877 35.53222656 C31.55255686 35.58239665 28.0604639 35.6381061 24.56835938 35.69335938 C17.71231667 35.8010164 10.85619367 35.90244449 4 36 C3.97686007 45.22270478 3.95907646 54.44539961 3.94818783 63.66812706 C3.94296262 67.95031126 3.93587152 72.23247564 3.92456055 76.51464844 C3.91371883 80.64487529 3.90772043 84.77508305 3.90512276 88.90532303 C3.90327083 90.4834282 3.89965465 92.06153229 3.89426994 93.63962936 C3.88704248 95.84489984 3.88600978 98.05009074 3.88647461 100.25537109 C3.884254 101.51223724 3.88203339 102.76910339 3.87974548 104.0640564 C3.79623608 106.93433417 3.79623608 106.93433417 5 109 C20.84 109.495 20.84 109.495 37 110 C38.32 113.96 39.64 117.92 41 122 C46.54396823 132.32533821 55.11842891 138.97854982 66 143 C66 143.33 66 143.66 66 144 C44.22 144 22.44 144 0 144 C0 96.48 0 48.96 0 0 Z " fill="#FCFCFD" transform="translate(0,0)"/>
<path d="M0 0 C15.84 0 31.68 0 48 0 C48 47.52 48 95.04 48 144 C34.47 144 20.94 144 7 144 C9.22852773 141.77147227 11.24110499 140.83034057 14.0625 139.4375 C24.84131517 133.58896857 31.00341591 125.72916913 34.6015625 114.046875 C36.53689806 104.10456289 34.90580543 94.79774441 30 86 C25.56615375 80.19238827 20.70064081 75.56051265 15 71 C24.24 70.67 33.48 70.34 43 70 C41.40958622 64.43355175 40.05724765 61.06800118 36.875 56.5625 C35.97843827 55.25570777 35.0826632 53.94837563 34.1875 52.640625 C33.68734375 51.91552734 33.1871875 51.19042969 32.671875 50.44335938 C29.35733702 45.59933249 26.12444878 40.7003104 22.875 35.8125 C20.91180278 32.86674016 18.94772289 29.92157076 16.98339844 26.9765625 C15.60986745 24.91525159 14.23825028 22.85266464 12.86816406 20.7890625 C12.17174805 19.74105469 11.47533203 18.69304688 10.7578125 17.61328125 C9.82026123 16.20042847 9.82026123 16.20042847 8.86376953 14.7590332 C6.39706866 11.10744995 3.83619979 7.52850775 1.25 3.9609375 C0 2 0 2 0 0 Z " fill="#FCFCFC" transform="translate(96,0)"/>
<path d="M0 0 C14.19 0 28.38 0 43 0 C41.51268162 3.71829596 40.39164098 6.12868778 38.1796875 9.28515625 C37.64472656 10.06310547 37.10976563 10.84105469 36.55859375 11.64257812 C35.43181599 13.26215775 34.30157605 14.87933389 33.16796875 16.49414062 C32.63558594 17.27080078 32.10320313 18.04746094 31.5546875 18.84765625 C31.06468262 19.54898682 30.57467773 20.25031738 30.06982422 20.97290039 C28.6888353 23.20757963 28.6888353 23.20757963 29 27 C47.315 27.495 47.315 27.495 66 28 C66 38.23 66 48.46 66 59 C44.22 59 22.44 59 0 59 C0 39.53 0 20.06 0 0 Z " fill="#B0DDD2" transform="translate(13,43)"/>
<path d="M0 0 C12.74506416 2.30347426 21.88904208 6.45060632 29.60546875 17.24609375 C34.03191073 24.79708301 34.47842964 33.18194454 32.3359375 41.61328125 C28.39561906 51.53260463 20.29154904 58.62192221 10.765625 63.03515625 C0.35652689 66.79011614 -12.08163136 66.28203536 -22.31640625 62.32421875 C-29.50542112 58.77680093 -36.35792183 53.28415633 -40 46 C-40.38804971 44.45757268 -40.74354576 42.90676007 -41.07446289 41.35107422 C-41.24933731 40.53726288 -41.42421173 39.72345154 -41.60438538 38.88497925 C-41.7349382 38.2629361 -41.86549103 37.64089294 -42 37 C-40.79351807 36.97494385 -39.58703613 36.9498877 -38.34399414 36.92407227 C-33.88424339 36.83017477 -29.42465487 36.72991167 -24.96508789 36.62768555 C-23.03185815 36.58426959 -21.09858841 36.54259958 -19.1652832 36.50268555 C-16.39261798 36.44514369 -13.62015543 36.3814038 -10.84765625 36.31640625 C-9.97786636 36.29969376 -9.10807648 36.28298126 -8.21192932 36.26576233 C-4.28884034 36.54973787 -4.28884034 36.54973787 -1 35 C-0.84003834 32.40846893 -0.74061303 29.8404798 -0.68359375 27.24609375 C-0.66281265 26.47064713 -0.64203156 25.6952005 -0.62062073 24.89625549 C-0.55504198 22.41009692 -0.49620201 19.92382955 -0.4375 17.4375 C-0.39432267 15.75584796 -0.35070864 14.07420706 -0.30664062 12.39257812 C-0.19935221 8.26183129 -0.09810868 4.13097464 0 0 Z " fill="#FBE396" transform="translate(89,73)"/>
<path d="M0 0 C1.76171875 0.16015625 1.76171875 0.16015625 4 1 C5.89453125 3.37109375 5.89453125 3.37109375 7.8125 6.4375 C8.50988281 7.52933594 9.20726562 8.62117188 9.92578125 9.74609375 C10.95251953 11.35677734 10.95251953 11.35677734 12 13 C13.15565776 14.67431898 14.32159883 16.34160934 15.5 18 C32 41.43150685 32 41.43150685 32 45 C33.485 45.495 33.485 45.495 35 46 C35.99 48.97 35.99 48.97 37 52 C13.57 52 -9.86 52 -34 52 C-32.23593231 47.58983078 -30.46688049 44.5758113 -27.75 40.75 C-24.6256496 36.33281496 -21.57594638 31.8814881 -18.58398438 27.37353516 C-15.88430025 23.32817001 -13.12738659 19.32210991 -10.375 15.3125 C-6.88621291 10.22803494 -3.40515403 5.14095206 0 0 Z " fill="#656CF9" transform="translate(89,11)"/>
<path d="M0 0 C1.93319651 1.66957881 2.9356404 2.82177342 3.8125 5.25 C5.24665045 8.57119052 7.26395293 10.67055411 9.7578125 13.25390625 C11 15 11 15 11 19 C12.32 19 13.64 19 15 19 C15.66 19.99 16.32 20.98 17 22 C18.66500443 22.34153937 20.33178677 22.67449498 22 23 C23.5 24.25 23.5 24.25 25 26 C25.845625 26.78375 26.69125 27.5675 27.5625 28.375 C29.96216599 30.95925568 31.13109704 32.61127844 32 36 C31.75 38.25 31.75 38.25 31 40 C30.01 40.495 30.01 40.495 29 41 C28.34786708 43.02463255 28.34786708 43.02463255 28 45 C25.41921626 42.63556939 23.70323736 40.10140575 21.875 37.125 C18.4463034 31.6434532 14.81754076 26.3394677 11.11328125 21.04296875 C9.03687635 18.05309922 7.01913654 15.0287048 5 12 C4.42636719 11.19175781 3.85273437 10.38351563 3.26171875 9.55078125 C2.48248047 8.44283203 2.48248047 8.44283203 1.6875 7.3125 C0.88892578 6.19294922 0.88892578 6.19294922 0.07421875 5.05078125 C-0.28027344 4.37402344 -0.63476562 3.69726562 -1 3 C-0.67 2.01 -0.34 1.02 0 0 Z " fill="#424851" transform="translate(95,12)"/>
<path d="M0 0 C0.33 0 0.66 0 1 0 C3.00302112 7.49675135 3.30670345 14.50360961 3.30078125 22.2421875 C3.30506638 23.48751251 3.3093515 24.73283752 3.31376648 26.01589966 C3.32093981 29.29937997 3.3179094 32.58267447 3.31219482 35.8661499 C3.31250115 37.88255889 3.32259176 39.89867841 3.33618164 41.91503906 C3.36057983 45.79506258 3.36484165 49.67459714 3.36328125 53.5546875 C3.372491 54.75777557 3.38170074 55.96086365 3.39118958 57.20040894 C3.38496078 58.31231598 3.37873199 59.42422302 3.37231445 60.56982422 C3.37294388 61.54861542 3.3735733 62.52740662 3.3742218 63.53585815 C3 66 3 66 0 69 C0 46.23 0 23.46 0 0 Z " fill="#596065" transform="translate(3,38)"/>
<path d="M0 0 C0.33 0.66 0.66 1.32 1 2 C-0.485 4.475 -0.485 4.475 -2 7 C21.43 7 44.86 7 69 7 C68.01 4.03 68.01 4.03 67 1 C69.2477975 3.05233685 70.0022242 4.00667261 71 7 C70.67 7.66 70.34 8.32 70 9 C45.58 9 21.16 9 -4 9 C-4.33 8.01 -4.66 7.02 -5 6 C-3.59554165 3.7363436 -1.8032087 1.9791315 0 0 Z " fill="#363F7B" transform="translate(57,56)"/>
<path d="M0 0 C2.76390737 2.40339772 3.04065919 3.16263678 4 7 C-19.43 7 -42.86 7 -67 7 C-66.34 5.35 -65.68 3.7 -65 2 C-64.01 2.66 -63.02 3.32 -62 4 C-59.23084856 4.32921736 -59.23084856 4.32921736 -56.05981445 4.31884766 C-54.83877518 4.33871735 -53.6177359 4.35858704 -52.35969543 4.37905884 C-51.04087875 4.39061005 -49.72206207 4.40216125 -48.36328125 4.4140625 C-46.99992194 4.43277347 -45.63657421 4.45234683 -44.27323914 4.4727478 C-40.68780345 4.52408284 -37.10233022 4.56370099 -33.51672363 4.60089111 C-29.85675762 4.64092231 -26.19694799 4.69201865 -22.53710938 4.7421875 C-15.3581802 4.83896295 -8.17917539 4.92336232 -1 5 C-1.495 3.02 -1.495 3.02 -2 1 C-1.34 0.67 -0.68 0.34 0 0 Z " fill="#6670E8" transform="translate(122,56)"/>
<path d="M0 0 C0.66 0 1.32 0 2 0 C-0.82648893 8.07368371 -6.73215711 12.61330439 -14.1875 16.4375 C-24.340948 21.32126857 -36.66597332 21.67726509 -47.4375 18.4375 C-53.09346653 16.29426781 -57.52676265 13.02139519 -62 9 C-59.43845459 9 -57.41735545 9.21231172 -54.9375 9.75 C-54.24527344 9.88921875 -53.55304687 10.0284375 -52.83984375 10.171875 C-51 11 -51 11 -50.13476562 12.94311523 C-48.35470664 16.16966363 -45.96290215 16.45448303 -42.56689453 17.45947266 C-38.33934808 18.34969406 -34.2389819 18.31764569 -29.9375 18.1875 C-28.6390918 18.16719727 -28.6390918 18.16719727 -27.31445312 18.14648438 C-25.20935826 18.1115933 -23.10459026 18.05780665 -21 18 C-20.75121094 17.36191406 -20.50242188 16.72382813 -20.24609375 16.06640625 C-19 14 -19 14 -17.16015625 13.27734375 C-16.46792969 13.16519531 -15.77570313 13.05304688 -15.0625 12.9375 C-11.7756359 12.2777497 -10.17536546 11.65878001 -8 9 C-7.34 9 -6.68 9 -6 9 C-5.67 7.68 -5.34 6.36 -5 5 C-4.34 5 -3.68 5 -3 5 C-3 4.34 -3 3.68 -3 3 C-2.34 3 -1.68 3 -1 3 C-0.67 2.01 -0.34 1.02 0 0 Z " fill="#EFE1A9" transform="translate(117,118)"/>
<path d="M0 0 C4.82360189 -0.19294408 8.49646738 0.24252386 13 2 C13 2.99 13 3.98 13 5 C7.06 3.515 7.06 3.515 1 2 C1.01571045 3.57467041 1.01571045 3.57467041 1.03173828 5.18115234 C1.06788453 9.06865033 1.09088078 12.95613341 1.10986328 16.84375 C1.11993317 18.52769466 1.13358988 20.21162179 1.15087891 21.89550781 C1.17508426 24.31319501 1.18647296 26.73065143 1.1953125 29.1484375 C1.20563507 29.9036972 1.21595764 30.65895691 1.22659302 31.43710327 C1.22699318 33.2929398 1.12222716 35.1481928 1 37 C-1 39 -1 39 -4.71533203 39.22705078 C-6.31286052 39.22673351 -7.91041027 39.21539982 -9.5078125 39.1953125 C-10.76874222 39.19106766 -10.76874222 39.19106766 -12.05514526 39.18673706 C-14.74524046 39.1755243 -17.4350051 39.15041803 -20.125 39.125 C-21.94660978 39.1149716 -23.76822477 39.10584551 -25.58984375 39.09765625 C-30.06002358 39.07558142 -34.52995571 39.04104434 -39 39 C-39 38.67 -39 38.34 -39 38 C-38.05680908 37.97494385 -37.11361816 37.9498877 -36.1418457 37.92407227 C-32.62871337 37.82870191 -29.11573292 37.72948275 -25.6027832 37.62768555 C-24.08492245 37.58448452 -22.56701774 37.54279952 -21.04907227 37.50268555 C-18.86200741 37.44462188 -16.67516082 37.38103344 -14.48828125 37.31640625 C-12.51661987 37.26141968 -12.51661987 37.26141968 -10.50512695 37.20532227 C-7.55300302 37.03239364 -4.87049504 36.67839286 -2 36 C-1.96241577 34.47076904 -1.96241577 34.47076904 -1.92407227 32.91064453 C-1.83002996 29.13479646 -1.72980163 25.35913373 -1.62768555 21.58349609 C-1.58432462 19.94812347 -1.54265039 18.31270523 -1.50268555 16.67724609 C-1.44501088 14.32896159 -1.38130871 11.98090696 -1.31640625 9.6328125 C-1.29969376 8.89942657 -1.28298126 8.16604065 -1.26576233 7.41043091 C-1.11387171 2.22774341 -1.11387171 2.22774341 0 0 Z " fill="#4E4A3A" transform="translate(88,71)"/>
<path d="M0 0 C4.3919802 1.4639934 5.71817278 4.54686405 8.1875 8.3125 C8.65091797 8.98990234 9.11433594 9.66730469 9.59179688 10.36523438 C10.02943359 11.02458984 10.46707031 11.68394531 10.91796875 12.36328125 C11.31781982 12.96438721 11.7176709 13.56549316 12.12963867 14.18481445 C13 16 13 16 13 20 C12.01 20.33 11.02 20.66 10 21 C10 20.01 10 19.02 10 18 C9.34 17.67 8.68 17.34 8 17 C8 16.01 8 15.02 8 14 C7.67 13.34 7.34 12.68 7 12 C3.88214887 12.64644661 3.88214887 12.64644661 3 15 C-0.32169911 12.31100548 -1.56477275 8.94687492 -3 5 C-2.67 4.34 -2.34 3.68 -2 3 C-1.34 3.33 -0.68 3.66 0 4 C0 2.68 0 1.36 0 0 Z " fill="#484D52" transform="translate(126,48)"/>
<path d="M0 0 C0 0.99 0 1.98 0 3 C-11.88 2.67 -23.76 2.34 -36 2 C-34.68 3.32 -33.36 4.64 -32 6 C-32 6.66 -32 7.32 -32 8 C-32.66 8 -33.32 8 -34 8 C-34 8.66 -34 9.32 -34 10 C-33.01 9.67 -32.02 9.34 -31 9 C-31.165 9.5775 -31.33 10.155 -31.5 10.75 C-32.14462031 13.26664369 -32.14462031 13.26664369 -32 17 C-36.38403656 13.20840082 -38.54949657 9.63691577 -40 4 C-40 3.01 -40 2.02 -40 1 C-26.8 0.67 -13.6 0.34 0 0 Z " fill="#EBDA9C" transform="translate(87,109)"/>
<path d="M0 0 C0.99 0.33 1.98 0.66 3 1 C2.27554688 2.05058594 1.55109375 3.10117187 0.8046875 4.18359375 C-0.17193967 5.60151796 -1.14849769 7.0194898 -2.125 8.4375 C-2.62765381 9.16654541 -3.13030762 9.89559082 -3.64819336 10.64672852 C-6.79499661 15.21932378 -9.88823037 19.81928013 -12.87890625 24.49609375 C-14 26 -14 26 -16 27 C-15.32902328 22.80639551 -13.1441606 19.59665648 -11 16 C-11.99 16 -12.98 16 -14 16 C-13.67 15.34 -13.34 14.68 -13 14 C-12.01 14.33 -11.02 14.66 -10 15 C-10 13.35 -10 11.7 -10 10 C-7 9 -7 9 -4 9 C-4 7.02 -4 5.04 -4 3 C-3.01 3 -2.02 3 -1 3 C-0.67 2.01 -0.34 1.02 0 0 Z " fill="#364071" transform="translate(83,16)"/>
<path d="M0 0 C14.19 0 28.38 0 43 0 C41.31482096 4.2129476 39.56523798 7.32315889 37 11 C36.34 10.67 35.68 10.34 35 10 C35.33 7.03 35.66 4.06 36 1 C24.12 1.33 12.24 1.66 0 2 C0 1.34 0 0.68 0 0 Z " fill="#B2D1CD" transform="translate(13,43)"/>
<path d="M0 0 C1.43088528 2.86177057 0.59991697 4.93375773 0 8 C-1.03125 7.79375 -2.0625 7.5875 -3.125 7.375 C-6.87582932 6.73929091 -6.87582932 6.73929091 -9.78125 7.96875 C-13.47985039 9.15373847 -16.50171651 9.19808082 -20.375 9.125 C-21.62023437 9.10695312 -22.86546875 9.08890625 -24.1484375 9.0703125 C-25.55996094 9.03550781 -25.55996094 9.03550781 -27 9 C-27 8.34 -27 7.68 -27 7 C-25.33324219 6.87044922 -25.33324219 6.87044922 -23.6328125 6.73828125 C-14.84365332 5.94600232 -7.59271936 4.88769649 0 0 Z " fill="#535046" transform="translate(107,131)"/>
<path d="M0 0 C0.33 0 0.66 0 1 0 C1 18.15 1 36.3 1 55 C0.01 55 -0.98 55 -2 55 C-2.33 53.68 -2.66 52.36 -3 51 C-2.01 50.505 -2.01 50.505 -1 50 C-0.67 33.5 -0.34 17 0 0 Z M-4 55 C-2 56 -2 56 -2 56 Z " fill="#374F4D" transform="translate(12,46)"/>
<path d="M0 0 C1.93319651 1.66957881 2.9356404 2.82177342 3.8125 5.25 C5.24665045 8.57119052 7.26395293 10.67055411 9.7578125 13.25390625 C11 15 11 15 11 19 C12.32 19 13.64 19 15 19 C16.66670026 22.52948291 17.13583456 24.28272326 16 28 C12.27427821 22.70445162 8.56530941 17.4054691 5 12 C4.46890625 11.25492188 3.9378125 10.50984375 3.390625 9.7421875 C2.82859375 8.94039062 2.2665625 8.13859375 1.6875 7.3125 C0.88892578 6.19294922 0.88892578 6.19294922 0.07421875 5.05078125 C-0.28027344 4.37402344 -0.63476562 3.69726562 -1 3 C-0.67 2.01 -0.34 1.02 0 0 Z " fill="#394078" transform="translate(95,12)"/>
<path d="M0 0 C2.375 -0.125 2.375 -0.125 5 0 C5.66 0.66 6.32 1.32 7 2 C7.64582031 2.13792969 8.29164062 2.27585937 8.95703125 2.41796875 C11.54769077 3.15603427 12.19256213 4.11017828 13.6875 6.3125 C14.10386719 6.90675781 14.52023438 7.50101562 14.94921875 8.11328125 C16.03918896 10.07036531 16.56050089 11.81216376 17 14 C16.01 14.495 16.01 14.495 15 15 C14.5875 14.48050781 14.175 13.96101563 13.75 13.42578125 C10.05374074 8.96221817 6.60810272 5.77783184 1.50390625 3.0078125 C1.00761719 2.67523438 0.51132813 2.34265625 0 2 C0 1.34 0 0.68 0 0 Z " fill="#545242" transform="translate(102,75)"/>
<path d="M0 0 C10 2 10 2 13 4 C8.72412002 4.08384078 5.23641013 3.84728203 1 3 C1 13.89 1 24.78 1 36 C0.34 35.67 -0.32 35.34 -1 35 C-0.67 23.45 -0.34 11.9 0 0 Z " fill="#ECE0B1" transform="translate(89,73)"/>
<path d="M0 0 C3 1 3 1 4.1328125 3.0625 C5.20439943 6.69238004 5.61163668 10.24360734 5.875 14 C5.9471875 14.69867188 6.019375 15.39734375 6.09375 16.1171875 C6.36895471 19.95556892 6.1625169 21.75526867 4.0078125 25 C3.34523438 25.66 2.68265625 26.32 2 27 C1.34 26.67 0.68 26.34 0 26 C0.48726563 24.7315625 0.48726563 24.7315625 0.984375 23.4375 C2.06416779 19.78281671 2.26667559 16.80203386 2.25 13 C2.25773437 11.2365625 2.25773437 11.2365625 2.265625 9.4375 C1.99850304 5.98062755 1.23880483 3.22482527 0 0 Z " fill="#514E43" transform="translate(119,92)"/>
<path d="M0 0 C0.80824219 0.38027344 1.61648437 0.76054688 2.44921875 1.15234375 C3.06410156 1.45269531 3.67898437 1.75304687 4.3125 2.0625 C4.3125 3.3825 4.3125 4.7025 4.3125 6.0625 C5.3025 6.3925 6.2925 6.7225 7.3125 7.0625 C7.3125 7.7225 7.3125 8.3825 7.3125 9.0625 C5.0115337 7.95462734 2.93576716 6.80820534 0.8125 5.375 C-1.56548959 3.81869533 -1.56548959 3.81869533 -4 4.375 C-4.556875 4.601875 -5.11375 4.82875 -5.6875 5.0625 C-5.831875 4.44375 -5.97625 3.825 -6.125 3.1875 C-6.61902225 1.02991678 -6.61902225 1.02991678 -7.6875 -0.9375 C-4.04589192 -2.15136936 -3.35584531 -1.6049695 0 0 Z " fill="#41494C" transform="translate(53.6875,126.9375)"/>
<path d="M0 0 C1.32 0 2.64 0 4 0 C4.61875 1.6396875 4.61875 1.6396875 5.25 3.3125 C6.33789992 5.90791837 6.77126342 6.83853888 9.125 8.5 C11 10 11 10 11.75 13.6875 C11.87375 15.3271875 11.87375 15.3271875 12 17 C8.23528557 15.74509519 7.9056298 14.57694051 6 11.1875 C4.53343823 8.60192105 3.12308175 6.16040515 1.3125 3.80078125 C0 2 0 2 0 0 Z " fill="#384372" transform="translate(112,40)"/>
<path d="M0 0 C1.32 0.33 2.64 0.66 4 1 C3.67 1.66 3.34 2.32 3 3 C2.01 3 1.02 3 0 3 C-0.268125 3.72574219 -0.53625 4.45148437 -0.8125 5.19921875 C-1.98670381 7.96864024 -3.3394324 10.30919434 -5 12.8125 C-5.515625 13.60269531 -6.03125 14.39289062 -6.5625 15.20703125 C-7.2740625 16.09455078 -7.2740625 16.09455078 -8 17 C-8.66 17 -9.32 17 -10 17 C-10.66 18.32 -11.32 19.64 -12 21 C-12 17.01717204 -10.4979159 15.44861887 -8.25 12.1875 C-7.20585938 10.66189453 -7.20585938 10.66189453 -6.140625 9.10546875 C-5.08101563 7.56826172 -5.08101563 7.56826172 -4 6 C-2.65957382 4.00461853 -1.32925264 2.00286039 0 0 Z " fill="#666CDD" transform="translate(89,11)"/>
<path d="M0 0 C0.33 0.99 0.66 1.98 1 3 C-2.82989106 4.80230168 -5.78121808 5.19622241 -10 5 C-9.67 4.01 -9.34 3.02 -9 2 C-9 2.66 -9 3.32 -9 4 C-8.34 4 -7.68 4 -7 4 C-7.33 2.68 -7.66 1.36 -8 0 C-5.13822943 -1.43088528 -3.06624227 -0.59991697 0 0 Z " fill="#4A5059" transform="translate(107,139)"/>
<path d="M0 0 C0.66 0.66 1.32 1.32 2 2 C-1.66970387 13.70615034 -1.66970387 13.70615034 -7 18 C-6.32902328 13.80639551 -4.1441606 10.59665648 -2 7 C-2.99 7 -3.98 7 -5 7 C-4.67 6.34 -4.34 5.68 -4 5 C-3.01 5.33 -2.02 5.66 -1 6 C-1.020625 5.195625 -1.04125 4.39125 -1.0625 3.5625 C-1 1 -1 1 0 0 Z " fill="#3B4767" transform="translate(74,25)"/>
<path d="M0 0 C3.25936304 3.02655139 5.75588381 6.15294367 8 10 C8 11.32 8 12.64 8 14 C7.01 14.33 6.02 14.66 5 15 C5 14.01 5 13.02 5 12 C4.34 11.67 3.68 11.34 3 11 C3 10.01 3 9.02 3 8 C2.18391223 5.37625345 2.18391223 5.37625345 1 3 C0.34 2.67 -0.32 2.34 -1 2 C-0.67 1.34 -0.34 0.68 0 0 Z " fill="#4B4F51" transform="translate(131,54)"/>
<path d="M0 0 C0.66 0 1.32 0 2 0 C2.66 1.65 3.32 3.3 4 5 C5.32 5 6.64 5 8 5 C8.33 5.66 8.66 6.32 9 7 C8.0625 9.125 8.0625 9.125 7 11 C6.01 11 5.02 11 4 11 C0.71428571 3.57142857 0.71428571 3.57142857 0 0 Z " fill="#F1F3F2" transform="translate(135,57)"/>
<path d="M0 0 C0.99 1.32 1.98 2.64 3 4 C-0.06246747 5.78409802 -2.22079273 6.22880021 -5.75 6.125 C-6.54921875 6.10695312 -7.3484375 6.08890625 -8.171875 6.0703125 C-8.77515625 6.04710937 -9.3784375 6.02390625 -10 6 C-7.99006295 3.99006295 -6.40788768 3.10059081 -3.875 1.875 C-3.15054688 1.52179688 -2.42609375 1.16859375 -1.6796875 0.8046875 C-1.12539062 0.53914062 -0.57109375 0.27359375 0 0 Z " fill="#F1F4F2" transform="translate(113,138)"/>
<path d="M0 0 C1.8161982 0.42188459 3.62794073 0.86299165 5.4375 1.3125 C6.44683594 1.55613281 7.45617188 1.79976563 8.49609375 2.05078125 C9.32238281 2.36402344 10.14867188 2.67726562 11 3 C11.33 3.99 11.66 4.98 12 6 C11.67 6.66 11.34 7.32 11 8 C6.40378078 6.5129879 3.53027653 4.20187872 0 1 C0 0.67 0 0.34 0 0 Z " fill="#EADA9D" transform="translate(55,126)"/>
<path d="M0 0 C4.82360189 -0.19294408 8.49646738 0.24252386 13 2 C13 2.99 13 3.98 13 5 C7.06 4.01 7.06 4.01 1 3 C0.67 2.01 0.34 1.02 0 0 Z " fill="#515144" transform="translate(88,71)"/>
<path d="M0 0 C1 2 1 2 0.25 4.4375 C-0.93098981 6.85852911 -1.9831559 8.25818009 -4 10 C-4.66 9.67 -5.32 9.34 -6 9 C-5.52797514 4.75177626 -3.03344482 2.80010291 0 0 Z " fill="#555349" transform="translate(116,123)"/>
<path d="M0 0 C3.59007126 1.33345504 6.79570907 2.8943231 10 5 C10 5.33 10 5.66 10 6 C7.36 6.33 4.72 6.66 2 7 C2 6.01 2 5.02 2 4 C1.34 3.67 0.68 3.34 0 3 C0 2.01 0 1.02 0 0 Z " fill="#514F44" transform="translate(58,130)"/>
<path d="M0 0 C0.66 1.32 1.32 2.64 2 4 C-1.32534757 5.10844919 -3.62182575 4.84454356 -7 4 C-7 3.01 -7 2.02 -7 1 C-4.53721199 -0.231394 -2.7204945 -0.07159196 0 0 Z " fill="#4B535E" transform="translate(123,40)"/>
<path d="M0 0 C2.475 0.99 2.475 0.99 5 2 C4.34 2.66 3.68 3.32 3 4 C3.66 5.32 4.32 6.64 5 8 C4.01 8 3.02 8 2 8 C0.25 6.25 0.25 6.25 -1 4 C-0.6875 1.75 -0.6875 1.75 0 0 Z " fill="#4D5357" transform="translate(44,123)"/>
<path d="M0 0 C3.465 1.98 3.465 1.98 7 4 C6.67 4.99 6.34 5.98 6 7 C5.34 7 4.68 7 4 7 C4 6.01 4 5.02 4 4 C3.236875 4.20625 2.47375 4.4125 1.6875 4.625 C-1 5 -1 5 -4 3 C-2.68 2.67 -1.36 2.34 0 2 C0 1.34 0 0.68 0 0 Z " fill="#4E535E" transform="translate(110,71)"/>
<path d="M0 0 C0.71929687 0.29003906 1.43859375 0.58007812 2.1796875 0.87890625 C2.90414062 1.16636719 3.62859375 1.45382813 4.375 1.75 C4.92929688 1.97816406 5.48359375 2.20632812 6.0546875 2.44140625 C6.0546875 2.77140625 6.0546875 3.10140625 6.0546875 3.44140625 C2.7546875 3.44140625 -0.5453125 3.44140625 -3.9453125 3.44140625 C-3.9453125 2.45140625 -3.9453125 1.46140625 -3.9453125 0.44140625 C-1.9453125 -0.55859375 -1.9453125 -0.55859375 0 0 Z " fill="#F3F5F4" transform="translate(59.9453125,140.55859375)"/>
<path d="M0 0 C2 2 2 2 2 5 C3.32 5.66 4.64 6.32 6 7 C5.67 7.99 5.34 8.98 5 10 C-0.73529412 4.70588235 -0.73529412 4.70588235 -1 1 C-0.67 0.67 -0.34 0.34 0 0 Z " fill="#E1D2A5" transform="translate(50,116)"/>
<path d="M0 0 C3.37503669 1.1858237 5.64722731 2.27573689 8 5 C7.67 5.66 7.34 6.32 7 7 C6.34 7 5.68 7 5 7 C5 6.34 5 5.68 5 5 C2.525 4.01 2.525 4.01 0 3 C0 2.01 0 1.02 0 0 Z " fill="#E9DCA4" transform="translate(102,77)"/>
<path d="M0 0 C2.50037734 2.17424117 3.43628586 3.73045798 4 7 C2.68 7 1.36 7 0 7 C-0.66 5.02 -1.32 3.04 -2 1 C-1.34 0.67 -0.68 0.34 0 0 Z " fill="#646AE0" transform="translate(122,56)"/>
<path d="M0 0 C0.33 0.66 0.66 1.32 1 2 C1.66 2 2.32 2 3 2 C3.66 3.65 4.32 5.3 5 7 C1.89448334 7 0.64738916 6.4606285 -2 5 C-1.125 1.125 -1.125 1.125 0 0 Z " fill="#F6F7F6" transform="translate(123,34)"/>
<path d="M0 0 C2.66735273 2.48952921 4.55746343 4.63408134 6 8 C5.01 8 4.02 8 3 8 C2.34 7.01 1.68 6.02 1 5 C-1.05925139 4.27617533 -1.05925139 4.27617533 -3 4 C-2 2 -2 2 0 0 Z " fill="#575762" transform="translate(115,30)"/>
<path d="M0 0 C0.66 0 1.32 0 2 0 C2 0.99 2 1.98 2 3 C-0.3125 5.25 -0.3125 5.25 -3 7 C-3.99 6.67 -4.98 6.34 -6 6 C-4 4 -2 2 0 0 Z " fill="#656AEB" transform="translate(78,30)"/>
<path d="M0 0 C3.465 1.98 3.465 1.98 7 4 C6.67 4.66 6.34 5.32 6 6 C5.01 5.67 4.02 5.34 3 5 C3 4.34 3 3.68 3 3 C1.68 2.34 0.36 1.68 -1 1 C-0.67 0.67 -0.34 0.34 0 0 Z M1 6 C2.485 6.99 2.485 6.99 4 8 C3.01 8.33 2.02 8.66 1 9 C1 8.01 1 7.02 1 6 Z " fill="#F0F2F0" transform="translate(49,134)"/>
<path d="M0 0 C2.97 0 5.94 0 9 0 C8.34 1.65 7.68 3.3 7 5 C3.535 3.02 3.535 3.02 0 1 C0 0.67 0 0.34 0 0 Z " fill="#F0F5F8" transform="translate(111,71)"/>
<path d="M0 0 C2.97 0.495 2.97 0.495 6 1 C6 1.99 6 2.98 6 4 C4.68 3.34 3.36 2.68 2 2 C1.34 3.65 0.68 5.3 0 7 C-0.93423645 3.98968256 -1.04449911 3.13349732 0 0 Z " fill="#3A437A" transform="translate(87,9)"/>
<path d="M0 0 C1.15224028 0.92961422 2.29659176 1.8690125 3.4375 2.8125 C4.07558594 3.33457031 4.71367188 3.85664062 5.37109375 4.39453125 C7 6 7 6 8 9 C7.34 9.66 6.68 10.32 6 11 C5.566875 10.05125 5.13375 9.1025 4.6875 8.125 C3.20697799 4.79958063 3.20697799 4.79958063 0 3 C0 2.01 0 1.02 0 0 Z " fill="#EDDDA8" transform="translate(110,82)"/>
<path d="M0 0 C3.29148243 1.13499394 3.9959869 1.99283376 5.75 5.125 C6.1625 6.07375 6.575 7.0225 7 8 C5.35 7.67 3.7 7.34 2 7 C1.34 4.69 0.68 2.38 0 0 Z " fill="#4E5259" transform="translate(101,11)"/>
<path d="M0 0 C2.46278801 2.46278801 2.99771255 4.70676982 4 8 C1 7 1 7 -0.6875 3.9375 C-1.120625 2.968125 -1.55375 1.99875 -2 1 C-1.34 0.67 -0.68 0.34 0 0 Z M4 4 C4.66 4 5.32 4 6 4 C6 4.66 6 5.32 6 6 C5.34 6 4.68 6 4 6 C4 5.34 4 4.68 4 4 Z " fill="#434C5E" transform="translate(126,55)"/>
<path d="M0 0 C3.44216672 2.6598561 3.99504674 5.90288286 5 10 C1.91910327 7.22719294 0.31224548 4.93673644 -1 1 C-0.67 0.67 -0.34 0.34 0 0 Z " fill="#343E6C" transform="translate(95,12)"/>
<path d="M0 0 C2.66735273 2.48952921 4.55746343 4.63408134 6 8 C5.01 8 4.02 8 3 8 C2.71125 7.195625 2.4225 6.39125 2.125 5.5625 C1.26737432 2.8673532 1.26737432 2.8673532 -1 2 C-0.67 1.34 -0.34 0.68 0 0 Z " fill="#565B5F" transform="translate(131,54)"/>
<path d="M0 0 C1.9375 0.5625 1.9375 0.5625 4 2 C4.75 5.625 4.75 5.625 5 9 C4.01 8.67 3.02 8.34 2 8 C1.67 7.01 1.34 6.02 1 5 C1.66 5 2.32 5 3 5 C2.01 3.35 1.02 1.7 0 0 Z " fill="#3E4A6D" transform="translate(119,48)"/>
<path d="M0 0 C0.66 0.33 1.32 0.66 2 1 C-2.625 6.875 -2.625 6.875 -6 8 C-6.33 7.34 -6.66 6.68 -7 6 C-4.69 4.02 -2.38 2.04 0 0 Z " fill="#E6EAEB" transform="translate(121,131)"/>
<path d="M0 0 C0.66 0 1.32 0 2 0 C1.3125 2.375 1.3125 2.375 0 5 C-2.625 6.3125 -2.625 6.3125 -5 7 C-5 6.34 -5 5.68 -5 5 C-4.34 5 -3.68 5 -3 5 C-3 4.34 -3 3.68 -3 3 C-2.34 3 -1.68 3 -1 3 C-0.67 2.01 -0.34 1.02 0 0 Z " fill="#EBDDA7" transform="translate(117,118)"/>
<path d="M0 0 C2 3 2 3 2 5 C0.35 5 -1.3 5 -3 5 C-2.625 3.0625 -2.625 3.0625 -2 1 C-1.34 0.67 -0.68 0.34 0 0 Z " fill="#3E4C5E" transform="translate(84,102)"/>
<path d="M0 0 C1.32 1.65 2.64 3.3 4 5 C0.79604584 5 -1.09399739 4.25664978 -4 3 C-2.68 2.01 -1.36 1.02 0 0 Z " fill="#4D565D" transform="translate(113,131)"/>
<path d="M0 0 C0.33 0.66 0.66 1.32 1 2 C0.06553465 4.03144641 -0.93224776 6.03533587 -2 8 C-2.99 7.67 -3.98 7.34 -5 7 C-1.125 1.125 -1.125 1.125 0 0 Z " fill="#35406E" transform="translate(57,56)"/>
<path d="M0 0 C0 2 0 4 0 6 C-0.99 6 -1.98 6 -3 6 C-3 4.68 -3 3.36 -3 2 C-3.66 1.67 -4.32 1.34 -5 1 C-3 0 -3 0 0 0 Z " fill="#454B5A" transform="translate(115,34)"/>
<path d="M0 0 C3 1 3 1 4.1875 3.0625 C4.455625 3.701875 4.72375 4.34125 5 5 C3.35 5 1.7 5 0 5 C0 3.35 0 1.7 0 0 Z " fill="#555462" transform="translate(110,24)"/>
</svg>
