<?xml version="1.0" encoding="UTF-8"?>
<svg version="1.1" xmlns="http://www.w3.org/2000/svg" width="192" height="192">
<path d="M0 0 C63.36 0 126.72 0 192 0 C192 63.36 192 126.72 192 192 C128.64 192 65.28 192 0 192 C0 128.64 0 65.28 0 0 Z " fill="#FDFDFD" transform="translate(0,0)"/>
<path d="M0 0 C0.43570313 0.92941406 0.87140625 1.85882812 1.3203125 2.81640625 C4.22936653 8.89762829 6.8942604 14.37318972 11.59375 19.28515625 C13.90168075 22.09954958 15.25681085 25.3584216 16.7265625 28.66796875 C18.16059733 31.29410002 19.87099442 32.90634691 22 35 C23.46098698 37.01019011 24.87625649 39.05420885 26.25 41.125 C26.95640625 42.17945313 27.6628125 43.23390625 28.390625 44.3203125 C30 47 30 47 30 49 C30.66 49 31.32 49 32 49 C32.4125 50.051875 32.825 51.10375 33.25 52.1875 C34.69220829 55.59635596 36.63565426 58.14647928 39 61 C39 61.66 39 62.32 39 63 C39.66 63 40.32 63 41 63 C41.45375 64.134375 41.9075 65.26875 42.375 66.4375 C43.57095806 70.04721692 43.57095806 70.04721692 46 71 C46.69658363 72.65438613 47.36096883 74.32254318 48 76 C48.99 77.485 48.99 77.485 50 79 C50.1875 82.125 50.1875 82.125 50 85 C49 86 49 86 46.40795898 86.11352539 C45.28204346 86.10828857 44.15612793 86.10305176 42.99609375 86.09765625 C41.17368164 86.09282227 41.17368164 86.09282227 39.31445312 86.08789062 C38.03505859 86.07951172 36.75566406 86.07113281 35.4375 86.0625 C34.15423828 86.05798828 32.87097656 86.05347656 31.54882812 86.04882812 C28.36583978 86.03699545 25.18294238 86.02051068 22 86 C24.17833905 89.74742876 26.41746785 92.68801807 29.5 95.75 C30.2734375 96.52859375 31.046875 97.3071875 31.84375 98.109375 C33.94285879 100.19632617 33.94285879 100.19632617 37 101 C37.33 101.99 37.66 102.98 38 104 C38.66 104.33 39.32 104.66 40 105 C40.66247073 107.55871723 41.18554935 110.02573807 41.625 112.625 C41.75398682 113.38756104 41.88297363 114.15012207 42.01586914 114.93579102 C43.72672106 125.81023161 45.01833437 137.22231391 39 147 C36.5243432 150.20063222 33.80029079 153.08434143 31 156 C29.76507029 157.45345637 28.53558917 158.91156579 27.3125 160.375 C20.9477934 167.59786928 12.35519174 170.00476684 3 171 C3 171.66 3 172.32 3 173 C-26.37389665 174.24831859 -26.37389665 174.24831859 -39 167 C-40.27617188 166.31550781 -40.27617188 166.31550781 -41.578125 165.6171875 C-47.8314936 161.89494428 -52.41552687 156.57869622 -57 151 C-57.49000488 150.43039551 -57.98000977 149.86079102 -58.48486328 149.27392578 C-60.40756325 146.38832676 -61.22331093 143.57478991 -62.1875 140.25 C-62.53167969 139.07953125 -62.87585937 137.9090625 -63.23046875 136.703125 C-63.48441406 135.81109375 -63.73835938 134.9190625 -64 134 C-65.01425049 133.99589111 -66.02850098 133.99178223 -67.07348633 133.98754883 C-70.83669858 133.96577624 -74.5988624 133.91150827 -78.36157227 133.84741211 C-79.99005077 133.82421533 -81.61867966 133.8098324 -83.24731445 133.80444336 C-85.58900841 133.79516508 -87.92833208 133.75420744 -90.26953125 133.70703125 C-91.36186821 133.71293022 -91.36186821 133.71293022 -92.47627258 133.71894836 C-94.53833008 133.65942383 -94.53833008 133.65942383 -98 133 C-101.33362186 128.97309734 -101.42962747 125.05862657 -101.38818359 120.04443359 C-101.39344055 119.25848312 -101.39869751 118.47253265 -101.40411377 117.6627655 C-101.41727846 115.07445187 -101.40859013 112.48675698 -101.3984375 109.8984375 C-101.40045885 108.09672935 -101.4033708 106.295022 -101.40713501 104.49331665 C-101.41155322 100.722353 -101.405142 96.95160286 -101.39111328 93.18066406 C-101.37399706 88.34380348 -101.38388108 83.5074414 -101.40183067 78.67059898 C-101.41266115 74.95258819 -101.40922599 71.234696 -101.4014473 67.51668167 C-101.39944452 65.73286505 -101.40190727 63.9490377 -101.40888596 62.16523361 C-101.41649112 59.67545693 -101.40491106 57.18649333 -101.38818359 54.69677734 C-101.39425629 53.95800858 -101.40032898 53.21923981 -101.40658569 52.45808411 C-101.37146481 49.6414102 -101.29187991 47.49682574 -99.8467865 45.03704834 C-97.18030507 43.5397068 -95.11295833 43.66500692 -92.06323242 43.71044922 C-90.2306916 43.72433182 -90.2306916 43.72433182 -88.36112976 43.73849487 C-87.70869482 43.74978298 -87.05625988 43.76107109 -86.38405418 43.77270126 C-84.33614787 43.80499215 -82.28943454 43.81364865 -80.24128723 43.81497192 C-74.41934505 43.82057905 -68.59836948 43.84954839 -62.77709961 43.94140625 C-59.21338934 43.99594606 -55.65178625 44.00647459 -52.08773232 43.98926163 C-50.07675024 43.99213916 -48.06602338 44.04325494 -46.05570984 44.09518433 C-39.39076714 44.22529174 -39.39076714 44.22529174 -33.87567139 41.0239563 C-32.35033604 38.74136819 -31.16691851 36.47973846 -30 34 C-28.6509982 32.35335367 -27.2803629 30.72381366 -25.875 29.125 C-22.27043096 24.74310977 -20.41287832 20.56253384 -18.7890625 15.15234375 C-18 13 -18 13 -16 12 C-14.41117144 9.20295362 -12.98251298 6.34125339 -11.53515625 3.46875 C-8.75780076 -0.99763338 -4.8231915 -0.09100361 0 0 Z " fill="#495357" transform="translate(119,16)"/>
<path d="M0 0 C14.85 0 29.7 0 45 0 C43.99903682 6.00577911 43.62173531 6.75739578 40 11 C38.98472064 12.71328392 37.97085955 14.42830853 37.015625 16.17578125 C36.33281155 17.40221925 35.61282221 18.60861167 34.859375 19.79296875 C32.4044745 23.70870793 31.55016558 26.38919719 32 31 C35.27315509 32.63657754 38.90622231 32.2430807 42.5078125 32.31640625 C43.76874222 32.3475779 43.76874222 32.3475779 45.05514526 32.37937927 C47.74501235 32.44485439 50.43497843 32.5037502 53.125 32.5625 C54.94662489 32.60568716 56.76823971 32.64930152 58.58984375 32.69335938 C63.05979577 32.80133907 67.52982108 32.90042729 72 33 C72 43.89 72 54.78 72 66 C48.24 66 24.48 66 0 66 C0 44.22 0 22.44 0 0 Z " fill="#AFDDD2" transform="translate(30,71)"/>
<path d="M0 0 C7.13095249 0.22637944 13.05852835 1.92113256 19 6 C19.495 7.485 19.495 7.485 20 9 C21.31403276 9.70394612 22.6520257 10.36345658 24 11 C30.58583405 14.98616271 34.32368701 22.87993709 36.375 30.125 C37.08319048 34.515781 37.23988099 38.56969788 37 43 C36.95875 43.81339844 36.9175 44.62679687 36.875 45.46484375 C36.36959339 51.9614246 36.36959339 51.9614246 33 55 C32.505 55.825 32.01 56.65 31.5 57.5 C30.15722539 59.73795768 29.00202809 61.3461507 27 63 C26.34 63 25.68 63 25 63 C24.79375 63.556875 24.5875 64.11375 24.375 64.6875 C21.2085209 70.01294212 16.81373021 72.42544807 11 74 C10.14277344 74.33644531 9.28554687 74.67289062 8.40234375 75.01953125 C-2.8433028 78.26023996 -15.96923911 77.01866157 -26.51171875 72.16796875 C-34.87563579 67.35665782 -42.2911728 60.04918821 -45.54589844 50.90771484 C-46 49 -46 49 -46 45 C-31.81 45 -17.62 45 -3 45 C-2.24405555 41.97622222 -1.86456488 39.90250348 -1.81054688 36.88989258 C-1.78547058 35.69394218 -1.78547058 35.69394218 -1.7598877 34.47383118 C-1.74631226 33.6226622 -1.73273682 32.77149323 -1.71875 31.89453125 C-1.70034058 31.01472092 -1.68193115 30.13491058 -1.66296387 29.22843933 C-1.58433265 25.46760101 -1.51629357 21.70659042 -1.44775391 17.94555664 C-1.39618299 15.19928711 -1.33889931 12.45317879 -1.28125 9.70703125 C-1.26767456 8.84978958 -1.25409912 7.99254791 -1.2401123 7.10932922 C-1.11287139 1.11287139 -1.11287139 1.11287139 0 0 Z " fill="#F8E298" transform="translate(114,104)"/>
<path d="M0 0 C0.99 0 1.98 0 3 0 C4.32421875 1.328125 4.32421875 1.328125 5.6875 3.25 C6.20054688 3.97058594 6.71359375 4.69117188 7.2421875 5.43359375 C7.82226562 6.28050781 8.40234375 7.12742187 9 8 C9.70382813 9.02222656 10.40765625 10.04445313 11.1328125 11.09765625 C16.83688308 19.51064924 16.83688308 19.51064924 18 23 C18.66 23 19.32 23 20 23 C22.25391613 25.3478293 23.01670761 27.06683046 23.8125 30.25 C25.11229832 34.35462626 26.90183105 36.69974409 29.54296875 40.015625 C31.62871943 42.85627204 32.73667258 45.71534871 34 49 C34.65288627 50.34013497 35.31225595 51.67741528 36 53 C36.66 53 37.32 53 38 53 C38.495 56.465 38.495 56.465 39 60 C13.92 60 -11.16 60 -37 60 C-37 55 -37 55 -34.6875 52.5 C-33.800625 51.675 -32.91375 50.85 -32 50 C-30.97388051 48.34928604 -29.97691857 46.68029994 -29 45 C-28.02640722 43.7664137 -27.04660781 42.53771422 -26.0625 41.3125 C-23.16044162 37.52907574 -21.58186181 33.72397216 -19.9375 29.27734375 C-18.74354413 26.37702594 -17.21391133 24.21391133 -15 22 C-14.34 22 -13.68 22 -13 22 C-12.773125 21.360625 -12.54625 20.72125 -12.3125 20.0625 C-9.30306449 13.04048382 -5.44021241 5.45507638 0 0 Z " fill="#99BCD6" transform="translate(114,33)"/>
<path d="M0 0 C2 1.625 2 1.625 4 4 C4.3125 7.1875 4.3125 7.1875 4 10 C3 11 3 11 0.40795898 11.11352539 C-0.71795654 11.10828857 -1.84387207 11.10305176 -3.00390625 11.09765625 C-4.21884766 11.09443359 -5.43378906 11.09121094 -6.68554688 11.08789062 C-7.96494141 11.07951172 -9.24433594 11.07113281 -10.5625 11.0625 C-11.84576172 11.05798828 -13.12902344 11.05347656 -14.45117188 11.04882812 C-17.63416022 11.03699545 -20.81705762 11.02051068 -24 11 C-21.82166095 14.74742876 -19.58253215 17.68801807 -16.5 20.75 C-15.7265625 21.52859375 -14.953125 22.3071875 -14.15625 23.109375 C-12.05714121 25.19632617 -12.05714121 25.19632617 -9 26 C-8.505 27.485 -8.505 27.485 -8 29 C-7.34 29.33 -6.68 29.66 -6 30 C-5.33752927 32.55871723 -4.81445065 35.02573807 -4.375 37.625 C-4.24601318 38.38756104 -4.11702637 39.15012207 -3.98413086 39.93579102 C-2.27327894 50.81023161 -0.98166563 62.22231391 -7 72 C-9.4756568 75.20063222 -12.19970921 78.08434143 -15 81 C-16.23492971 82.45345637 -17.46441083 83.91156579 -18.6875 85.375 C-25.0522066 92.59786928 -33.64480826 95.00476684 -43 96 C-43 96.66 -43 97.32 -43 98 C-47.3749437 98.05826088 -51.74978698 98.09368457 -56.125 98.125 C-57.98125 98.15013672 -57.98125 98.15013672 -59.875 98.17578125 C-61.07382813 98.18222656 -62.27265625 98.18867188 -63.5078125 98.1953125 C-64.60754395 98.20578613 -65.70727539 98.21625977 -66.84033203 98.22705078 C-70.18456942 97.98673701 -72.87708695 97.18909337 -76 96 C-76 95.67 -76 95.34 -76 95 C-71.71 95 -67.42 95 -63 95 C-63.33 94.01 -63.66 93.02 -64 92 C-65.485 91.505 -65.485 91.505 -67 91 C-67 90.34 -67 89.68 -67 89 C-67.60585937 88.99742187 -68.21171875 88.99484375 -68.8359375 88.9921875 C-77.77897221 88.57943205 -84.51399511 85.03455665 -90.5625 78.4375 C-92.69786123 75.73070407 -93.7867262 73.51901775 -94 70 C-92.95541681 70.87151615 -91.91453593 71.74746967 -90.875 72.625 C-90.22273438 73.17414063 -89.57046875 73.72328125 -88.8984375 74.2890625 C-87 76 -87 76 -84.5 79 C-76.76210606 86.65686887 -65.91351645 88.53368562 -55.5 88.5625 C-54.66388184 88.56491699 -53.82776367 88.56733398 -52.96630859 88.56982422 C-47.59464501 88.42441123 -43.81553007 87.36222093 -39 85 C-37.989375 84.71125 -36.97875 84.4225 -35.9375 84.125 C-29.25955913 81.56749073 -23.69671386 75.56930955 -19.8125 69.6875 C-19.214375 68.800625 -18.61625 67.91375 -18 67 C-17.34 67 -16.68 67 -16 67 C-14.32953246 51.04106903 -16.11780206 41.55326443 -23 27 C-22.34 27 -21.68 27 -21 27 C-21.12375 25.700625 -21.2475 24.40125 -21.375 23.0625 C-21.47941406 21.96615234 -21.47941406 21.96615234 -21.5859375 20.84765625 C-21.79089844 19.93306641 -21.79089844 19.93306641 -22 19 C-22.66 18.67 -23.32 18.34 -24 18 C-24.495 16.515 -24.495 16.515 -25 15 C-25.99 14.67 -26.98 14.34 -28 14 C-27.67 12.35 -27.34 10.7 -27 9 C-12.645 8.505 -12.645 8.505 2 8 C1.01 4.04 1.01 4.04 0 0 Z " fill="#4A4C4D" transform="translate(165,91)"/>
<path d="M0 0 C0.495 0.99 0.495 0.99 1 2 C-0.5778125 1.8453125 -0.5778125 1.8453125 -2.1875 1.6875 C-6.04922587 1.67131035 -6.04922587 1.67131035 -8.75 4 C-11.00204608 7.00272811 -12.08639595 9.44399801 -13.25390625 12.953125 C-14.44279294 16.21478272 -16.23111454 19.01500579 -18 22 C-18.495 23.03125 -18.99 24.0625 -19.5 25.125 C-21.05528195 28.10595707 -22.73597428 30.51687502 -25 33 C-25.66 33 -26.32 33 -27 33 C-27.10988754 33.57363281 -27.21977509 34.14726563 -27.33299255 34.73828125 C-28.65635753 39.22560653 -31.20772412 42.30529169 -35 45 C-39.73003959 46.15306601 -44.40737563 46.07420377 -49.24609375 46 C-50.62616761 46.00752765 -52.00622635 46.01856968 -53.38624573 46.03295898 C-56.9986133 46.06127189 -60.60919829 46.04218652 -64.22149658 46.01287842 C-67.91535805 45.99141135 -71.60890518 46.01524912 -75.30273438 46.03515625 C-82.53559987 46.06751862 -89.76718347 46.04975973 -97 46 C-98.17456545 49.52369636 -98.13992597 52.69599527 -98.12939453 56.36132812 C-98.13114685 57.10797226 -98.13289917 57.85461639 -98.13470459 58.62388611 C-98.13910741 61.09303102 -98.13619062 63.56210435 -98.1328125 66.03125 C-98.13348599 67.74613458 -98.13445639 69.46101907 -98.13571167 71.17590332 C-98.13718651 74.77043568 -98.13504091 78.36494319 -98.13037109 81.95947266 C-98.12467394 86.56979602 -98.12795408 91.18006116 -98.13394356 95.79038239 C-98.13755491 99.33164917 -98.13640793 102.87290212 -98.13381577 106.41416931 C-98.13314809 108.1142528 -98.13396938 109.81433753 -98.13629532 111.51441956 C-98.13883122 113.88920423 -98.13496796 116.26389426 -98.12939453 118.63867188 C-98.13141876 119.34317978 -98.13344299 120.04768768 -98.13552856 120.77354431 C-98.12235595 123.79912991 -97.96533379 126.10399863 -97 129 C-85.78 129 -74.56 129 -63 129 C-62.67 129.99 -62.34 130.98 -62 132 C-61.34 132 -60.68 132 -60 132 C-58.66416101 136.84241633 -57.74671881 140.93437617 -58 146 C-57.01 146.33 -56.02 146.66 -55 147 C-54.67 148.98 -54.34 150.96 -54 153 C-58.2024507 149.47902779 -59.81560281 146.5382675 -61.32421875 141.28125 C-62.06484757 138.78109259 -63.01899687 136.41462306 -64 134 C-65.01425049 133.99589111 -66.02850098 133.99178223 -67.07348633 133.98754883 C-70.83669858 133.96577624 -74.5988624 133.91150827 -78.36157227 133.84741211 C-79.99005077 133.82421533 -81.61867966 133.8098324 -83.24731445 133.80444336 C-85.58900841 133.79516508 -87.92833208 133.75420744 -90.26953125 133.70703125 C-91.36186821 133.71293022 -91.36186821 133.71293022 -92.47627258 133.71894836 C-94.53833008 133.65942383 -94.53833008 133.65942383 -98 133 C-101.33362186 128.97309734 -101.42962747 125.05862657 -101.38818359 120.04443359 C-101.39344055 119.25848312 -101.39869751 118.47253265 -101.40411377 117.6627655 C-101.41727846 115.07445187 -101.40859013 112.48675698 -101.3984375 109.8984375 C-101.40045885 108.09672935 -101.4033708 106.295022 -101.40713501 104.49331665 C-101.41155322 100.722353 -101.405142 96.95160286 -101.39111328 93.18066406 C-101.37399706 88.34380348 -101.38388108 83.5074414 -101.40183067 78.67059898 C-101.41266115 74.95258819 -101.40922599 71.234696 -101.4014473 67.51668167 C-101.39944452 65.73286505 -101.40190727 63.9490377 -101.40888596 62.16523361 C-101.41649112 59.67545693 -101.40491106 57.18649333 -101.38818359 54.69677734 C-101.39425629 53.95800858 -101.40032898 53.21923981 -101.40658569 52.45808411 C-101.37146481 49.6414102 -101.29187991 47.49682574 -99.8467865 45.03704834 C-97.18030507 43.5397068 -95.11295833 43.66500692 -92.06323242 43.71044922 C-90.2306916 43.72433182 -90.2306916 43.72433182 -88.36112976 43.73849487 C-87.70869482 43.74978298 -87.05625988 43.76107109 -86.38405418 43.77270126 C-84.33614787 43.80499215 -82.28943454 43.81364865 -80.24128723 43.81497192 C-74.41934505 43.82057905 -68.59836948 43.84954839 -62.77709961 43.94140625 C-59.21338934 43.99594606 -55.65178625 44.00647459 -52.08773232 43.98926163 C-50.07675024 43.99213916 -48.06602338 44.04325494 -46.05570984 44.09518433 C-39.39076714 44.22529174 -39.39076714 44.22529174 -33.87567139 41.0239563 C-32.35033604 38.74136819 -31.16691851 36.47973846 -30 34 C-28.6509982 32.35335367 -27.2803629 30.72381366 -25.875 29.125 C-22.27043096 24.74310977 -20.41287832 20.56253384 -18.7890625 15.15234375 C-18 13 -18 13 -16 12 C-14.41117144 9.20295362 -12.98251298 6.34125339 -11.53515625 3.46875 C-8.75780076 -0.99763338 -4.8231915 -0.09100361 0 0 Z " fill="#777C80" transform="translate(119,16)"/>
<path d="M0 0 C7.13095249 0.22637944 13.05852835 1.92113256 19 6 C19.495 7.485 19.495 7.485 20 9 C21.31403276 9.70394612 22.6520257 10.36345658 24 11 C30.58583405 14.98616271 34.32368701 22.87993709 36.375 30.125 C37.08319048 34.515781 37.23988099 38.56969788 37 43 C36.95875 43.81339844 36.9175 44.62679687 36.875 45.46484375 C36.36959339 51.9614246 36.36959339 51.9614246 33 55 C32.505 55.825 32.01 56.65 31.5 57.5 C30.15722539 59.73795768 29.00202809 61.3461507 27 63 C26.34 63 25.68 63 25 63 C24.79375 63.556875 24.5875 64.11375 24.375 64.6875 C21.2085209 70.01294212 16.81373021 72.42544807 11 74 C10.14277344 74.33644531 9.28554687 74.67289062 8.40234375 75.01953125 C-3.38233764 78.41557606 -15.84516712 76.58159422 -26.93359375 71.8984375 C-30.56734388 69.64875271 -32.45210869 67.40036336 -35 64 C-32.90083238 65.03520595 -30.82679931 66.09480459 -28.7734375 67.21875 C-17.32148023 73.33640796 -5.69380625 74.22698355 7 72 C7.99 71.34 8.98 70.68 10 70 C11.32 70 12.64 70 14 70 C14.04511719 69.44183594 14.09023437 68.88367188 14.13671875 68.30859375 C15.4086341 64.90722737 18.02128832 63.21440227 20.8125 61.0625 C27.80900157 55.62294102 27.80900157 55.62294102 32 48 C32.66 48 33.32 48 34 48 C33.67 42.72 33.34 37.44 33 32 C32.34 32 31.68 32 31 32 C30.97421875 31.08476562 30.9484375 30.16953125 30.921875 29.2265625 C30.86515625 28.03804687 30.8084375 26.84953125 30.75 25.625 C30.70359375 24.44164062 30.6571875 23.25828125 30.609375 22.0390625 C30.35773981 18.95764446 30.35773981 18.95764446 28.30859375 17.83203125 C27.54675781 17.55746094 26.78492188 17.28289062 26 17 C24.08101811 15.72158349 22.18645935 14.40604629 20.3125 13.0625 C19.33925781 12.37285156 18.36601562 11.68320313 17.36328125 10.97265625 C15 9 15 9 14 6 C8.06 5.01 8.06 5.01 2 4 C1.67 16.54 1.34 29.08 1 42 C-0.98 42.495 -0.98 42.495 -3 43 C-2.505 42.01 -2.505 42.01 -2 41 C-1.85480122 38.02398634 -1.7656757 35.06772819 -1.71875 32.08984375 C-1.70034058 31.20720352 -1.68193115 30.32456329 -1.66296387 29.41517639 C-1.58411112 25.62871676 -1.51639808 21.84207621 -1.44775391 18.05541992 C-1.39615767 15.29596802 -1.33886445 12.53667547 -1.28125 9.77734375 C-1.26767456 8.91382797 -1.25409912 8.05031219 -1.2401123 7.16062927 C-1.11282481 1.11282481 -1.11282481 1.11282481 0 0 Z " fill="#C9BE8D" transform="translate(114,104)"/>
<path d="M0 0 C15.51 0 31.02 0 47 0 C47 1.98 47 3.96 47 6 C46.34 6.33 45.68 6.66 45 7 C45.33 5.02 45.66 3.04 46 1 C31.15 1 16.3 1 1 1 C1 22.78 1 44.56 1 67 C24.76 67 48.52 67 73 67 C73 56.11 73 45.22 73 34 C70.29167969 34.02320313 67.58335938 34.04640625 64.79296875 34.0703125 C62.17179839 34.08590708 59.55063318 34.09805293 56.92944336 34.10986328 C55.10682871 34.11992491 53.28423021 34.1335756 51.46166992 34.15087891 C48.84289565 34.17512021 46.22433469 34.18648138 43.60546875 34.1953125 C42.38188911 34.21079636 42.38188911 34.21079636 41.1335907 34.22659302 C37.22869244 34.2273686 35.32475992 34.21650661 32 32 C32.35010941 23.80743982 32.35010941 23.80743982 35.0625 20.4375 C35.701875 19.963125 36.34125 19.48875 37 19 C36.855625 19.70125 36.71125 20.4025 36.5625 21.125 C35.98520948 24.07559597 35.48891532 27.03363983 35 30 C36.14065918 30.02505615 37.28131836 30.0501123 38.45654297 30.07592773 C42.67964341 30.16994293 46.90257709 30.27017787 51.12548828 30.37231445 C52.95487575 30.41568565 54.78430427 30.45735911 56.61376953 30.49731445 C59.24003486 30.55496418 61.8660931 30.61867365 64.4921875 30.68359375 C65.31306854 30.70030624 66.13394958 30.71701874 66.97970581 30.73423767 C72.77225659 30.88612829 72.77225659 30.88612829 75 32 C75 44.21 75 56.42 75 69 C50.25 69 25.5 69 0 69 C0 46.23 0 23.46 0 0 Z " fill="#89A6A2" transform="translate(29,70)"/>
<path d="M0 0 C2 1.625 2 1.625 4 4 C4.3125 7.1875 4.3125 7.1875 4 10 C3 11 3 11 0.40795898 11.11352539 C-0.71795654 11.10828857 -1.84387207 11.10305176 -3.00390625 11.09765625 C-4.21884766 11.09443359 -5.43378906 11.09121094 -6.68554688 11.08789062 C-7.96494141 11.07951172 -9.24433594 11.07113281 -10.5625 11.0625 C-11.84576172 11.05798828 -13.12902344 11.05347656 -14.45117188 11.04882812 C-17.63416022 11.03699545 -20.81705762 11.02051068 -24 11 C-21.82166095 14.74742876 -19.58253215 17.68801807 -16.5 20.75 C-15.7265625 21.52859375 -14.953125 22.3071875 -14.15625 23.109375 C-12.05714121 25.19632617 -12.05714121 25.19632617 -9 26 C-8.67 26.99 -8.34 27.98 -8 29 C-7.34 29.33 -6.68 29.66 -6 30 C-5.33752927 32.55871723 -4.81445065 35.02573807 -4.375 37.625 C-4.18151978 38.76884155 -4.18151978 38.76884155 -3.98413086 39.93579102 C-2.27570809 50.79479155 -1.02378991 62.18505642 -7 72 C-7.99 72.495 -7.99 72.495 -9 73 C-8.78778809 72.48590576 -8.57557617 71.97181152 -8.35693359 71.44213867 C-5.9232626 64.98442763 -5.54500365 59.16996492 -5.625 52.3125 C-5.61339844 51.30638672 -5.60179687 50.30027344 -5.58984375 49.26367188 C-5.61196735 43.67008717 -5.94692796 39.74114626 -9 35 C-10.485 35.495 -10.485 35.495 -12 36 C-12.029729 36.93066284 -12.029729 36.93066284 -12.06005859 37.88012695 C-12.15531845 40.69134537 -12.26499302 43.50182166 -12.375 46.3125 C-12.4059375 47.28896484 -12.436875 48.26542969 -12.46875 49.27148438 C-12.50742188 50.20927734 -12.54609375 51.14707031 -12.5859375 52.11328125 C-12.6173584 52.97735596 -12.6487793 53.84143066 -12.68115234 54.73168945 C-13 57 -13 57 -15 60 C-14.96519531 59.16597656 -14.93039063 58.33195312 -14.89453125 57.47265625 C-14.72179984 50.2919648 -15.11121685 44.57875225 -18 38 C-18.6496875 36.51693359 -18.6496875 36.51693359 -19.3125 35.00390625 C-20.51491341 32.32238771 -21.74369724 29.65660861 -23 27 C-22.34 27 -21.68 27 -21 27 C-21.12375 25.700625 -21.2475 24.40125 -21.375 23.0625 C-21.44460937 22.33160156 -21.51421875 21.60070312 -21.5859375 20.84765625 C-21.79089844 19.93306641 -21.79089844 19.93306641 -22 19 C-22.66 18.67 -23.32 18.34 -24 18 C-24.33 17.01 -24.66 16.02 -25 15 C-25.99 14.67 -26.98 14.34 -28 14 C-27.67 12.35 -27.34 10.7 -27 9 C-17.43 8.67 -7.86 8.34 2 8 C1.34 5.36 0.68 2.72 0 0 Z " fill="#6D7070" transform="translate(165,91)"/>
<path d="M0 0 C14.85 0 29.7 0 45 0 C44.67 1.98 44.34 3.96 44 6 C43.01 6.66 42.02 7.32 41 8 C41.66 6.02 42.32 4.04 43 2 C29.14 2 15.28 2 1 2 C1 22.79 1 43.58 1 65 C24.1 65 47.2 65 71 65 C71 54.77 71 44.54 71 34 C58.79 34 46.58 34 34 34 C34 33.67 34 33.34 34 33 C46.54 33 59.08 33 72 33 C72 43.89 72 54.78 72 66 C48.24 66 24.48 66 0 66 C0 44.22 0 22.44 0 0 Z " fill="#A9CCC6" transform="translate(30,71)"/>
<path d="M0 0 C0 3 0 3 -2.12028503 5.15911865 C-5.45578084 7.29136163 -7.1542826 7.48712183 -11.07543945 7.45410156 C-12.29299927 7.45361816 -13.51055908 7.45313477 -14.76501465 7.45263672 C-16.03494263 7.43217285 -17.30487061 7.41170898 -18.61328125 7.390625 C-19.78773804 7.38659668 -20.96219482 7.38256836 -22.17224121 7.37841797 C-26.55248677 7.35751594 -30.93250934 7.30167051 -35.3125 7.25 C-50.0078125 7.12625 -50.0078125 7.12625 -65 7 C-65.33 33.73 -65.66 60.46 -66 88 C-66.33 88 -66.66 88 -67 88 C-67.04632562 77.63839742 -67.08187038 67.27681945 -67.10362434 56.91513443 C-67.11406476 52.10386753 -67.12822872 47.29267145 -67.15087891 42.48144531 C-67.17259801 37.83897963 -67.18456668 33.19658209 -67.18975449 28.55406952 C-67.19345191 26.78223345 -67.20067198 25.01040114 -67.21146011 23.23859406 C-67.22596264 20.75826434 -67.22797846 18.27821681 -67.22705078 15.79785156 C-67.23424133 15.06417358 -67.24143188 14.33049561 -67.24884033 13.57458496 C-67.23388996 9.88430849 -67.04310385 7.13495606 -65 4 C-64.22992111 3.99413376 -63.45984222 3.98826752 -62.66642761 3.98222351 C-55.41208339 3.92433964 -48.15808434 3.85228844 -40.90404797 3.76428509 C-37.17457931 3.71954129 -33.44522089 3.68029441 -29.71557617 3.65356445 C-26.11679448 3.62757087 -22.51843614 3.58719752 -18.91991615 3.53681374 C-17.54644343 3.52011809 -16.17289743 3.5086206 -14.79933739 3.50238609 C-12.8767681 3.49277525 -10.95433123 3.46303335 -9.03198242 3.43237305 C-7.93722092 3.42126999 -6.84245941 3.41016693 -5.71452332 3.39872742 C-2.714437 2.95805459 -1.80811052 2.37159575 0 0 Z " fill="#5D6468" transform="translate(87,57)"/>
<path d="M0 0 C0.495 0.99 0.495 0.99 1 2 C-0.5778125 1.8453125 -0.5778125 1.8453125 -2.1875 1.6875 C-6.04922587 1.67131035 -6.04922587 1.67131035 -8.75 4 C-11.00204608 7.00272811 -12.08639595 9.44399801 -13.25390625 12.953125 C-14.44279294 16.21478272 -16.23111454 19.01500579 -18 22 C-18.495 23.03125 -18.99 24.0625 -19.5 25.125 C-21.05528195 28.10595707 -22.73597428 30.51687502 -25 33 C-25.66 33 -26.32 33 -27 33 C-27.10979691 33.57354218 -27.21959381 34.14708435 -27.3327179 34.73800659 C-28.65593801 39.22353852 -31.20805959 42.30756933 -35 45 C-39.7290188 46.13652699 -44.33204649 46.02440606 -49.17578125 45.9296875 C-50.55105243 45.93213141 -51.92632162 45.93838837 -53.30155945 45.94827271 C-56.90338918 45.96530881 -60.50333019 45.9366157 -64.10491943 45.89630127 C-69.88559949 45.84052264 -75.66666871 45.85959215 -81.44753075 45.86957169 C-83.46532424 45.86721432 -85.48241325 45.84828236 -87.50007629 45.82614136 C-88.71861801 45.82018951 -89.93715973 45.81423767 -91.19262695 45.80810547 C-92.26849564 45.7972995 -93.34436432 45.78649353 -94.45283508 45.77536011 C-97.16823048 45.74006202 -97.16823048 45.74006202 -99 48 C-99.21730326 50.55765342 -99.31138209 53.01037362 -99.31884766 55.57080078 C-99.32889328 56.35137848 -99.3389389 57.13195618 -99.34928894 57.93618774 C-99.38023993 60.522555 -99.39718892 63.1088182 -99.4140625 65.6953125 C-99.43276459 67.486083 -99.45233727 69.2768446 -99.4727478 71.06759644 C-99.52417644 75.78577437 -99.56374456 80.50398092 -99.60089111 85.22229004 C-99.64086366 90.03498472 -99.6919867 94.84755931 -99.7421875 99.66015625 C-99.83907377 109.10668661 -99.92343774 118.5532846 -100 128 C-100.33 128 -100.66 128 -101 128 C-101.0694474 117.49076633 -101.12278448 106.98158706 -101.15543652 96.47217083 C-101.17110624 91.59244888 -101.19236831 86.71288368 -101.22631836 81.83325195 C-101.25886528 77.12594368 -101.27684317 72.41878637 -101.28463173 67.71137428 C-101.29018364 65.91357864 -101.30102494 64.11579146 -101.31719017 62.31805992 C-101.33890262 59.80389796 -101.34196956 57.29036336 -101.34057617 54.77612305 C-101.351362 54.02949905 -101.36214783 53.28287506 -101.3732605 52.5136261 C-101.35619945 49.67699231 -101.30025966 47.51370603 -99.84976196 45.03208923 C-97.18095068 43.54300499 -95.11133541 43.6650311 -92.06323242 43.71044922 C-90.2306916 43.72433182 -90.2306916 43.72433182 -88.36112976 43.73849487 C-87.70869482 43.74978298 -87.05625988 43.76107109 -86.38405418 43.77270126 C-84.33614787 43.80499215 -82.28943454 43.81364865 -80.24128723 43.81497192 C-74.41934505 43.82057905 -68.59836948 43.84954839 -62.77709961 43.94140625 C-59.21338934 43.99594606 -55.65178625 44.00647459 -52.08773232 43.98926163 C-50.07675024 43.99213916 -48.06602338 44.04325494 -46.05570984 44.09518433 C-39.39076714 44.22529174 -39.39076714 44.22529174 -33.87567139 41.0239563 C-32.35033604 38.74136819 -31.16691851 36.47973846 -30 34 C-28.6509982 32.35335367 -27.2803629 30.72381366 -25.875 29.125 C-22.27043096 24.74310977 -20.41287832 20.56253384 -18.7890625 15.15234375 C-18 13 -18 13 -16 12 C-14.41117144 9.20295362 -12.98251298 6.34125339 -11.53515625 3.46875 C-8.75780076 -0.99763338 -4.8231915 -0.09100361 0 0 Z " fill="#9A9FA2" transform="translate(119,16)"/>
<path d="M0 0 C0.33 0 0.66 0 1 0 C1 13.2 1 26.4 1 40 C-13.85 40 -28.7 40 -44 40 C-42.60625592 37.21251184 -40.6417 36.62861499 -37.80078125 35.60546875 C-34.05768818 34.79629242 -30.44538387 34.70198245 -26.625 34.6875 C-25.91077881 34.68218262 -25.19655762 34.67686523 -24.46069336 34.67138672 C-19.25786021 34.74213979 -19.25786021 34.74213979 -17 37 C-13.97827466 37.39689576 -13.97827466 37.39689576 -10.5625 37.375 C-8.83193359 37.41753906 -8.83193359 37.41753906 -7.06640625 37.4609375 C-3.99888694 37.2963893 -3.99888694 37.2963893 -2.32446289 35.4309082 C-0.48742504 32.05922418 -0.67787674 29.47055194 -0.7421875 25.64453125 C-0.74880402 24.94228928 -0.75542053 24.2400473 -0.76223755 23.51652527 C-0.78558311 21.28139788 -0.82930896 19.04727273 -0.875 16.8125 C-0.91002755 14.56713833 -0.94078896 12.32182911 -0.96633911 10.07633972 C-0.99109479 8.04662231 -1.02822103 6.01706713 -1.06591797 3.98754883 C-1 1 -1 1 0 0 Z " fill="#4C4D3C" transform="translate(111,106)"/>
<path d="M0 0 C0.625 1.8125 0.625 1.8125 1 4 C0.34 4.99 -0.32 5.98 -1 7 C-1 8.32 -1 9.64 -1 11 C0.14065918 11.02505615 1.28131836 11.0501123 2.45654297 11.07592773 C6.67964341 11.16994293 10.90257709 11.27017787 15.12548828 11.37231445 C16.95487575 11.41568565 18.78430427 11.45735911 20.61376953 11.49731445 C23.24003486 11.55496418 25.8660931 11.61867365 28.4921875 11.68359375 C29.31306854 11.70030624 30.13394958 11.71701874 30.97970581 11.73423767 C36.77225659 11.88612829 36.77225659 11.88612829 39 13 C39 25.21 39 37.42 39 50 C14.25 50 -10.5 50 -36 50 C-36 49.67 -36 49.34 -36 49 C-11.58 49 12.84 49 38 49 C38 37.45 38 25.9 38 14 C33.57787109 14.01740234 33.57787109 14.01740234 29.06640625 14.03515625 C26.22355253 14.04294616 23.38069998 14.0490233 20.5378418 14.05493164 C18.55606559 14.05997267 16.57429311 14.06680538 14.5925293 14.07543945 C11.75047891 14.08751515 8.90847753 14.09323045 6.06640625 14.09765625 C4.72891075 14.10539818 4.72891075 14.10539818 3.36439514 14.11329651 C1.24259399 14.11349177 -0.8791078 14.0621003 -3 14 C-3.495 13.505 -3.495 13.505 -4 13 C-3.95969788 8.03276399 -3.65587458 3.65587458 0 0 Z " fill="#6D8786" transform="translate(65,89)"/>
<path d="M0 0 C5.08302869 1.6943429 7.15589288 6.64980889 10 11 C10.4434375 11.65097656 10.886875 12.30195312 11.34375 12.97265625 C14.26020665 17.54524364 14 19.02943405 14 25 C-12.07 25 -38.14 25 -65 25 C-65 23.35 -65 21.7 -65 20 C-64.67 20.99 -64.34 21.98 -64 23 C-38.92 23 -13.84 23 12 23 C11.505 19.535 11.505 19.535 11 16 C10.34 16 9.68 16 9 16 C5.81010995 12.45226972 3.57692976 8.4881847 2 4 C1.34786461 2.65949948 0.68620031 1.32338632 0 0 Z " fill="#596B7A" transform="translate(141,70)"/>
<path d="M0 0 C7.13095249 0.22637944 13.05852835 1.92113256 19 6 C19.33 6.99 19.66 7.98 20 9 C21.31403276 9.70394612 22.6520257 10.36345658 24 11 C29.55507337 14.36228125 32.67869132 20.06582743 35 26 C34.6640625 28.34375 34.6640625 28.34375 34 30 C33.32591692 28.73308493 32.66099503 27.46129251 32 26.1875 C31.62875 25.47980469 31.2575 24.77210938 30.875 24.04296875 C30 22 30 22 30 19 C29.45730469 18.75121094 28.91460937 18.50242187 28.35546875 18.24609375 C25.49406513 16.73234955 22.94317415 14.94857746 20.3125 13.0625 C19.33925781 12.37285156 18.36601562 11.68320313 17.36328125 10.97265625 C15 9 15 9 14 6 C8.06 5.01 8.06 5.01 2 4 C1.67 16.54 1.34 29.08 1 42 C-0.98 42.495 -0.98 42.495 -3 43 C-2.67 42.34 -2.34 41.68 -2 41 C-1.85480122 38.02398634 -1.7656757 35.06772819 -1.71875 32.08984375 C-1.69113586 30.76588341 -1.69113586 30.76588341 -1.66296387 29.41517639 C-1.58411112 25.62871676 -1.51639808 21.84207621 -1.44775391 18.05541992 C-1.39615767 15.29596802 -1.33886445 12.53667547 -1.28125 9.77734375 C-1.26767456 8.91382797 -1.25409912 8.05031219 -1.2401123 7.16062927 C-1.11282481 1.11282481 -1.11282481 1.11282481 0 0 Z " fill="#C1B68D" transform="translate(114,104)"/>
<path d="M0 0 C0 3 0 3 -2 8 C20.77 8 43.54 8 67 8 C67 6.68 67 5.36 67 4 C67.66 4 68.32 4 69 4 C69.495 7.465 69.495 7.465 70 11 C44.92 11 19.84 11 -6 11 C-6 6 -6 6 -3.5625 3.25 C-2.716875 2.5075 -1.87125 1.765 -1 1 C-0.67 0.67 -0.34 0.34 0 0 Z " fill="#869EB0" transform="translate(83,82)"/>
<path d="M0 0 C0.99 0 1.98 0 3 0 C4.32421875 1.328125 4.32421875 1.328125 5.6875 3.25 C6.20054688 3.97058594 6.71359375 4.69117188 7.2421875 5.43359375 C7.82226562 6.28050781 8.40234375 7.12742187 9 8 C9.70382813 9.02222656 10.40765625 10.04445313 11.1328125 11.09765625 C16.83688308 19.51064924 16.83688308 19.51064924 18 23 C18.66 23 19.32 23 20 23 C21.6875 24.75 21.6875 24.75 23 27 C22.6875 29.25 22.6875 29.25 22 31 C21.7525 30.360625 21.505 29.72125 21.25 29.0625 C20.18437567 26.81258459 20.18437567 26.81258459 17.875 26.25 C17.25625 26.1675 16.6375 26.085 16 26 C16 24.68 16 23.36 16 22 C15.34 22 14.68 22 14 22 C12.76318359 20.34765625 12.76318359 20.34765625 11.3984375 18.0625 C10.66367188 16.84433594 10.66367188 16.84433594 9.9140625 15.6015625 C9.40617187 14.74304687 8.89828125 13.88453125 8.375 13 C7.6015625 11.71222656 7.6015625 11.71222656 6.8125 10.3984375 C5.5351001 8.26943766 4.26465303 6.13658804 3 4 C-0.40694892 5.5694591 -1.77237816 6.76961408 -3.625 10.0625 C-5.80555556 13.90277778 -5.80555556 13.90277778 -8 15 C-9.12706706 17.11015954 -9.12706706 17.11015954 -10.125 19.5625 C-10.47820312 20.38878906 -10.83140625 21.21507813 -11.1953125 22.06640625 C-11.46085937 22.70449219 -11.72640625 23.34257813 -12 24 C-12.66 24 -13.32 24 -14 24 C-14.33 24.99 -14.66 25.98 -15 27 C-15.66 27.33 -16.32 27.66 -17 28 C-17.33 28.99 -17.66 29.98 -18 31 C-18.66 31 -19.32 31 -20 31 C-18.7580393 27.56072421 -17.44259716 24.74792181 -15 22 C-14.34 22 -13.68 22 -13 22 C-12.773125 21.360625 -12.54625 20.72125 -12.3125 20.0625 C-9.30306449 13.04048382 -5.44021241 5.45507638 0 0 Z " fill="#7B93A6" transform="translate(114,33)"/>
<path d="M0 0 C2.72036866 2.41810547 4.63596699 4.90674399 6.5 8 C8.76356478 11.74251969 11.22069406 14.61609538 14.6875 17.3125 C16.73648174 19.94690509 16.69363993 22.7525833 17 26 C17.99 26 18.98 26 20 26 C21.4606285 28.64738916 22 29.89448334 22 33 C23.485 33.495 23.485 33.495 25 34 C25 34.99 25 35.98 25 37 C25.66 37 26.32 37 27 37 C29 40 29 40 29 44 C29.66 44 30.32 44 31 44 C31 44.99 31 45.98 31 47 C31.99 47.33 32.98 47.66 34 48 C34 48.99 34 49.98 34 51 C34.66 51 35.32 51 36 51 C36.495 53.97 36.495 53.97 37 57 C34.35247996 54.42215154 32.05567935 52.08351902 30 49 C30 47.68 30 46.36 30 45 C29.34 45 28.68 45 28 45 C26.37890625 42.76953125 26.37890625 42.76953125 24.5625 39.8125 C23.66724609 38.36810547 23.66724609 38.36810547 22.75390625 36.89453125 C21.6279067 35.03625582 20.51946915 33.16715975 19.43359375 31.28515625 C18.02054188 28.8228228 18.02054188 28.8228228 15.5 26.625 C11.90003847 22.84504039 10.64568908 18.93706725 9 14 C8.01 13.67 7.02 13.34 6 13 C4.39453125 10.56640625 4.39453125 10.56640625 2.8125 7.5625 C2.01779297 6.07943359 2.01779297 6.07943359 1.20703125 4.56640625 C0 2 0 2 0 0 Z " fill="#CECFD3" transform="translate(121,20)"/>
<path d="M0 0 C2.09916762 1.03520595 4.17320069 2.09480459 6.2265625 3.21875 C17.64112303 9.31643054 29.34602312 10.28186468 42 8 C45.57831151 6.66881935 45.57831151 6.66881935 49 5 C50.22715567 4.47444599 51.45631705 3.95354902 52.6875 3.4375 C55.17384103 2.35852182 57.59718339 1.24946464 60 0 C55.82334655 5.5191492 52.63204326 8.01038702 46 10 C45.14019531 10.33902344 44.28039062 10.67804688 43.39453125 11.02734375 C31.60467481 14.40556498 19.157093 12.58254878 8.06640625 7.8984375 C4.43265612 5.64875271 2.54789131 3.40036336 0 0 Z " fill="#CDBF91" transform="translate(79,168)"/>
<path d="M0 0 C0 3.91021768 -1.29087428 4.95334196 -3.75 7.9375 C-4.79414063 9.21947266 -4.79414063 9.21947266 -5.859375 10.52734375 C-12.22443908 17.87968967 -19.47180357 21.82690257 -29 24 C-29.75152344 24.18433594 -30.50304687 24.36867187 -31.27734375 24.55859375 C-44.11675559 27.35816475 -57.86789595 27.54032752 -70 22 C-70.33 21.34 -70.66 20.68 -71 20 C-68.28748299 20.47867947 -65.81886106 21.06616147 -63.22607422 22.01318359 C-59.85112733 23.04553832 -57.02819441 23.31348016 -53.5078125 23.4140625 C-52.30898437 23.45273438 -51.11015625 23.49140625 -49.875 23.53125 C-48.01875 23.57765625 -48.01875 23.57765625 -46.125 23.625 C-44.86429688 23.66367188 -43.60359375 23.70234375 -42.3046875 23.7421875 C-39.20326863 23.83616989 -36.10185114 23.92183411 -33 24 C-33 23.34 -33 22.68 -33 22 C-32.05125 21.7525 -31.1025 21.505 -30.125 21.25 C-19.74388758 18.25990271 -11.41529078 14.32504998 -4.625 5.75 C-4.17511719 5.19570312 -3.72523438 4.64140625 -3.26171875 4.0703125 C-2.16709101 2.71949529 -1.08247207 1.36057754 0 0 Z " fill="#B1B3B7" transform="translate(155,165)"/>
<path d="M0 0 C0.99 0.33 1.98 0.66 3 1 C3 1.99 3 2.98 3 4 C3.66 4 4.32 4 5 4 C5 5.32 5 6.64 5 8 C5.639375 8.226875 6.27875 8.45375 6.9375 8.6875 C9 10 9 10 9.75 12.625 C9.87375 13.800625 9.87375 13.800625 10 15 C10.66 15 11.32 15 12 15 C13.34985251 22.36283186 13.34985251 22.36283186 11.84179688 25.109375 C10 27 10 27 7.45629883 27.45410156 C6.46654053 27.4331543 5.47678223 27.41220703 4.45703125 27.390625 C3.38388672 27.37773438 2.31074219 27.36484375 1.20507812 27.3515625 C0.08552734 27.31804687 -1.03402344 27.28453125 -2.1875 27.25 C-3.31865234 27.23195313 -4.44980469 27.21390625 -5.61523438 27.1953125 C-8.41100376 27.14812652 -11.20507972 27.08230595 -14 27 C-12.90344712 28.31886772 -11.79746577 29.62990057 -10.6875 30.9375 C-10.07261719 31.66839844 -9.45773438 32.39929688 -8.82421875 33.15234375 C-7.04024481 35.23820366 -7.04024481 35.23820366 -4 36 C-4.33 37.32 -4.66 38.64 -5 40 C-7.00931971 38.07141188 -9.00727269 36.133102 -11 34.1875 C-11.57234375 33.64029297 -12.1446875 33.09308594 -12.734375 32.52929688 C-14.21400538 31.07608846 -15.61296658 29.54183626 -17 28 C-17 27.01 -17 26.02 -17 25 C-8.09 24.67 0.82 24.34 10 24 C10.11703202 17.98219051 10.11703202 17.98219051 7 14 C7 12.68 7 11.36 7 10 C6.01 9.67 5.02 9.34 4 9 C2.35179805 6.39757586 2 5.13751221 2 2 C1.34 2 0.68 2 0 2 C0 1.34 0 0.68 0 0 Z " fill="#B4B7BB" transform="translate(158,77)"/>
<path d="M0 0 C1.04458319 0.87151615 2.08546407 1.74746967 3.125 2.625 C4.10339844 3.44871094 4.10339844 3.44871094 5.1015625 4.2890625 C7 6 7 6 9.5 9 C18.19154223 17.51140664 29.42842718 18.49207593 40.9375 18.375 C44.62800855 18.29773768 48.3130321 18.17864548 52 18 C52 18.66 52 19.32 52 20 C46.47291389 20.94220126 41.16241648 21.12116149 35.5625 21.0625 C34.73556641 21.05798828 33.90863281 21.05347656 33.05664062 21.04882812 C31.03772854 21.03715811 29.01885426 21.01922718 27 21 C27 20.34 27 19.68 27 19 C26.39414063 18.99742187 25.78828125 18.99484375 25.1640625 18.9921875 C16.22102779 18.57943205 9.48600489 15.03455665 3.4375 8.4375 C1.30213877 5.73070407 0.2132738 3.51901775 0 0 Z " fill="#7E775D" transform="translate(71,161)"/>
<path d="M0 0 C0.71422119 -0.00531738 1.42844238 -0.01063477 2.16430664 -0.01611328 C7.36713979 0.05463979 7.36713979 0.05463979 9.625 2.3125 C12.74696336 2.77736718 12.74696336 2.77736718 16.25 2.9375 C17.43851563 3.01226562 18.62703125 3.08703125 19.8515625 3.1640625 C20.76679687 3.21304688 21.68203125 3.26203125 22.625 3.3125 C22.625 3.6425 22.625 3.9725 22.625 4.3125 C9.425 4.6425 -3.775 4.9725 -17.375 5.3125 C-15.98125592 2.52501184 -14.0167 1.94111499 -11.17578125 0.91796875 C-7.43268818 0.10879242 -3.82038387 0.01448245 0 0 Z " fill="#434A46" transform="translate(84.375,140.6875)"/>
<path d="M0 0 C-3.22791555 2.1519437 -4.28400809 2.20086443 -8 2 C-8 2.66 -8 3.32 -8 4 C-12.3749437 4.05826088 -16.74978698 4.09368457 -21.125 4.125 C-22.98125 4.15013672 -22.98125 4.15013672 -24.875 4.17578125 C-26.07382813 4.18222656 -27.27265625 4.18867188 -28.5078125 4.1953125 C-29.60754395 4.20578613 -30.70727539 4.21625977 -31.84033203 4.22705078 C-35.18456942 3.98673701 -37.87708695 3.18909337 -41 2 C-41 1.67 -41 1.34 -41 1 C-39.92069214 1.01571045 -39.92069214 1.01571045 -38.81958008 1.03173828 C-21.3786973 1.4505143 -21.3786973 1.4505143 -4.125 -0.66015625 C-2 -1 -2 -1 0 0 Z " fill="#62656E" transform="translate(130,185)"/>
<path d="M0 0 C0.6875 1.6875 0.6875 1.6875 1 4 C-1.0367181 7.9992511 -3.69192726 11.04793765 -6.8125 14.25 C-7.64394531 15.12140625 -8.47539062 15.9928125 -9.33203125 16.890625 C-12.36391227 19.2877198 -14.19707359 19.68609132 -18 20 C-19.11375 20.185625 -20.2275 20.37125 -21.375 20.5625 C-22.24125 20.706875 -23.1075 20.85125 -24 21 C-22.15791605 18.74856406 -21.01424669 18.0044323 -18.1875 17.125 C-10.22407411 14.3143791 -4.3815114 6.9779626 0 0 Z " fill="#696752" transform="translate(147,158)"/>
<path d="M0 0 C1.65 0 3.3 0 5 0 C4.01 0.66 3.02 1.32 2 2 C0.19073993 10.19030636 1.31871033 18.67345349 1.859375 26.97265625 C1.91867188 28.10316406 1.97796875 29.23367187 2.0390625 30.3984375 C2.10303223 31.42630371 2.16700195 32.45416992 2.23291016 33.51318359 C2.1560498 34.33383301 2.07918945 35.15448242 2 36 C1.01 36.66 0.02 37.32 -1 38 C-1.02468084 32.90967159 -1.04285082 27.81937785 -1.05493164 22.72900391 C-1.05996682 20.99657586 -1.06679532 19.26415208 -1.07543945 17.53173828 C-1.08754065 15.04458567 -1.09323638 12.55748913 -1.09765625 10.0703125 C-1.10281754 9.29317902 -1.10797882 8.51604553 -1.11329651 7.71536255 C-1.11387171 2.22774341 -1.11387171 2.22774341 0 0 Z " fill="#EFDCA7" transform="translate(116,108)"/>
<path d="M0 0 C2.97 0.33 5.94 0.66 9 1 C9 1.66 9 2.32 9 3 C10.32 3.33 11.64 3.66 13 4 C13 5.32 13 6.64 13 8 C11.3745692 7.85904936 9.74965949 7.71207913 8.125 7.5625 C7.22007813 7.48128906 6.31515625 7.40007812 5.3828125 7.31640625 C3 7 3 7 1 6 C1 5.01 1 4.02 1 3 C0.34 3 -0.32 3 -1 3 C-0.67 2.01 -0.34 1.02 0 0 Z " fill="#494E4B" transform="translate(89,179)"/>
<path d="M0 0 C0.99 0 1.98 0 3 0 C3 0.99 3 1.98 3 3 C1.52208843 4.21517173 0.0403216 5.4264334 -1.47265625 6.59765625 C-3.73829106 8.67786826 -4.74210359 11.23262789 -6 14 C-6.99 14.495 -6.99 14.495 -8 15 C-9.12706706 17.11015954 -9.12706706 17.11015954 -10.125 19.5625 C-10.47820312 20.38878906 -10.83140625 21.21507813 -11.1953125 22.06640625 C-11.46085937 22.70449219 -11.72640625 23.34257813 -12 24 C-12.66 24 -13.32 24 -14 24 C-14.33 24.99 -14.66 25.98 -15 27 C-15.66 27.33 -16.32 27.66 -17 28 C-17.33 28.99 -17.66 29.98 -18 31 C-18.66 31 -19.32 31 -20 31 C-18.7580393 27.56072421 -17.44259716 24.74792181 -15 22 C-14.34 22 -13.68 22 -13 22 C-12.773125 21.360625 -12.54625 20.72125 -12.3125 20.0625 C-9.30306449 13.04048382 -5.44021241 5.45507638 0 0 Z " fill="#7F98AA" transform="translate(114,33)"/>
<path d="M0 0 C2.72036866 2.41810547 4.63596699 4.90674399 6.5 8 C8.74872174 11.71797858 11.23241297 14.5262798 14.57421875 17.3125 C16.39501129 19.46752021 16.48556102 20.90074204 16.6875 23.6875 C16.78611328 24.89986328 16.78611328 24.89986328 16.88671875 26.13671875 C16.92410156 26.75160156 16.96148437 27.36648437 17 28 C12.490815 24.11277156 10.84763705 19.54291115 9 14 C8.01 13.67 7.02 13.34 6 13 C4.39453125 10.56640625 4.39453125 10.56640625 2.8125 7.5625 C2.01779297 6.07943359 2.01779297 6.07943359 1.20703125 4.56640625 C0 2 0 2 0 0 Z " fill="#BABCC0" transform="translate(121,20)"/>
<path d="M0 0 C5.25932961 0.02266952 8.1011854 1.33941158 12.375 4.3125 C10.75 5 10.75 5 8.375 5.3125 C6.375 4.3125 4.375 3.3125 2.375 2.3125 C0.395 2.3125 -1.585 2.3125 -3.625 2.3125 C-3.955 15.5125 -4.285 28.7125 -4.625 42.3125 C-4.955 42.3125 -5.285 42.3125 -5.625 42.3125 C-5.64964638 36.49178378 -5.6678343 30.67109766 -5.67993164 24.8503418 C-5.68497267 22.86856559 -5.69180538 20.88679311 -5.70043945 18.9050293 C-5.71251515 16.06297891 -5.71823045 13.22097753 -5.72265625 10.37890625 C-5.72781754 9.48724258 -5.73297882 8.59557892 -5.73829651 7.67689514 C-5.73849177 5.55509399 -5.6871003 3.4333922 -5.625 1.3125 C-4.00318691 -0.30931309 -2.23605363 0.06417677 0 0 Z " fill="#686249" transform="translate(117.625,102.6875)"/>
<path d="M0 0 C1.9609375 0.015625 1.9609375 0.015625 4.375 0.25 C5.16648437 0.31703125 5.95796875 0.3840625 6.7734375 0.453125 C9.35133561 1.08629296 10.32367504 1.98841004 12 4 C9 3.5 9 3.5 6 3 C3.03 2.505 3.03 2.505 0 2 C0 15.2 0 28.4 0 42 C-0.99 42 -1.98 42 -3 42 C-2.505 41.505 -2.505 41.505 -2 41 C-1.85205581 38.05636823 -1.76489284 35.13324774 -1.71875 32.1875 C-1.70034058 31.30344482 -1.68193115 30.41938965 -1.66296387 29.50854492 C-1.60401899 26.67243302 -1.55128081 23.83626024 -1.5 21 C-1.43257262 17.27069879 -1.3589042 13.54160068 -1.28125 9.8125 C-1.26767456 8.94584717 -1.25409912 8.07919434 -1.2401123 7.1862793 C-1.11280181 1.11280181 -1.11280181 1.11280181 0 0 Z " fill="#998F6E" transform="translate(114,104)"/>
<path d="M0 0 C0.99 0 1.98 0 3 0 C3 0.66 3 1.32 3 2 C3.99 2.33 4.98 2.66 6 3 C6.33 5.97 6.66 8.94 7 12 C0.25 9.25 0.25 9.25 -2 7 C-1.6730244 4.38419521 -1.17960932 2.35921863 0 0 Z " fill="#535249" transform="translate(138,107)"/>
<path d="M0 0 C0.625 1.8125 0.625 1.8125 1 4 C0.01 5.485 0.01 5.485 -1 7 C-1 8.32 -1 9.64 -1 11 C17.81 11.495 17.81 11.495 37 12 C37 12.33 37 12.66 37 13 C31.48243524 13.0493521 25.96499829 13.08569662 20.44726562 13.10986328 C18.56931318 13.11993534 16.69137647 13.13359362 14.81347656 13.15087891 C12.1177991 13.17507453 9.42232854 13.18647083 6.7265625 13.1953125 C5.88380768 13.20563507 5.04105286 13.21595764 4.17276001 13.22659302 C2.11378753 13.22699144 0.05532065 13.12257588 -2 13 C-2.66 12.34 -3.32 11.68 -4 11 C-3.74525692 6.41462451 -3.14031285 3.41338353 0 0 Z " fill="#586C6E" transform="translate(65,89)"/>
<path d="M0 0 C14.85 0 29.7 0 45 0 C44.67 1.98 44.34 3.96 44 6 C43.01 6.66 42.02 7.32 41 8 C41.66 6.02 42.32 4.04 43 2 C28.81 1.67 14.62 1.34 0 1 C0 0.67 0 0.34 0 0 Z " fill="#99BBB5" transform="translate(30,71)"/>
<path d="M0 0 C0.33 0.66 0.66 1.32 1 2 C-0.051875 1.896875 -1.10375 1.79375 -2.1875 1.6875 C-6.04922587 1.67131035 -6.04922587 1.67131035 -8.75 4 C-11.01459324 7.01945766 -11.95787671 9.40824505 -13.109375 12.9296875 C-14.6567005 16.52654063 -17.30551557 19.20959541 -20 22 C-20.33 21.34 -20.66 20.68 -21 20 C-18.51612903 13.25806452 -18.51612903 13.25806452 -16 12 C-14.41117144 9.20295362 -12.98251298 6.34125339 -11.53515625 3.46875 C-8.75780076 -0.99763338 -4.8231915 -0.09100361 0 0 Z " fill="#A5A8AB" transform="translate(119,16)"/>
<path d="M0 0 C4.10884569 4.69523987 3.47912876 9.14559653 3.4375 15.125 C3.45748047 16.12015625 3.47746094 17.1153125 3.49804688 18.140625 C3.49277307 26.22009749 2.12828548 34.16257578 -3.75 40.125 C-4.86375 41.053125 -4.86375 41.053125 -6 42 C-5.505 39.03 -5.505 39.03 -5 36 C-4.01 36 -3.02 36 -2 36 C-1.86722656 35.30132812 -1.73445312 34.60265625 -1.59765625 33.8828125 C-1.33275391 32.51769531 -1.33275391 32.51769531 -1.0625 31.125 C-0.88847656 30.22007812 -0.71445313 29.31515625 -0.53515625 28.3828125 C0 26 0 26 1 24 C1.09466261 22.63667984 1.13072175 21.26894483 1.1328125 19.90234375 C1.13410156 19.10119141 1.13539063 18.30003906 1.13671875 17.47460938 C1.13285156 16.63736328 1.12898437 15.80011719 1.125 14.9375 C1.13080078 13.67583008 1.13080078 13.67583008 1.13671875 12.38867188 C1.53603884 8.3757913 1.53603884 8.3757913 0 5 C-0.04063832 3.33382885 -0.042721 1.66611905 0 0 Z " fill="#5A6166" transform="translate(157,128)"/>
<path d="M0 0 C2.97 0.495 2.97 0.495 6 1 C6.33 2.32 6.66 3.64 7 5 C7.66 5 8.32 5 9 5 C12.22265625 10.2734375 12.22265625 10.2734375 13 12 C12.67 12.66 12.34 13.32 12 14 C8 8.25 8 8.25 8 6 C7.01 5.67 6.02 5.34 5 5 C5 4.34 5 3.68 5 3 C0.03689205 5.12704626 -1.52087699 8.30608754 -3.7890625 12.94140625 C-5 15 -5 15 -8 17 C-6.59116673 12.90157595 -4.50961643 9.54408397 -2.12109375 5.96484375 C-0.98339089 3.97089065 -0.44433547 2.2416475 0 0 Z " fill="#566775" transform="translate(112,30)"/>
<path d="M0 0 C13.53 0 27.06 0 41 0 C41 0.33 41 0.66 41 1 C32.56010242 1.84647096 24.22901207 2.12756916 15.75 2.0625 C14.61175781 2.05798828 13.47351563 2.05347656 12.30078125 2.04882812 C9.53379591 2.03720214 6.76692842 2.02086431 4 2 C3.34 3.32 2.68 4.64 2 6 C1.34 6 0.68 6 0 6 C0 4.02 0 2.04 0 0 Z " fill="#EDDFA5" transform="translate(70,150)"/>
<path d="M0 0 C5.01632918 0 7.52247755 0.29427716 12 2 C12 2.33 12 2.66 12 3 C8.7 2.67 5.4 2.34 2 2 C1.67 14.54 1.34 27.08 1 40 C0.67 40 0.34 40 0 40 C0 26.8 0 13.6 0 0 Z " fill="#CBBF94" transform="translate(114,106)"/>
<path d="M0 0 C0.99 0.495 0.99 0.495 2 1 C2 1.66 2 2.32 2 3 C13.22 3 24.44 3 36 3 C37.32 5.97 38.64 8.94 40 12 C39.67 12.66 39.34 13.32 39 14 C36.25000973 10.77175056 35.89570311 9.47851553 35 5 C23.78 4.67 12.56 4.34 1 4 C0.67 2.68 0.34 1.36 0 0 Z " fill="#D6D7D9" transform="translate(19,146)"/>
<path d="M0 0 C8.91 0 17.82 0 27 0 C27 0.33 27 0.66 27 1 C19.08 1 11.16 1 3 1 C8.66628877 8.83638487 8.66628877 8.83638487 13 10 C12.67 11.32 12.34 12.64 12 14 C9.99387601 12.04761147 7.99507567 10.08862178 6 8.125 C5.42765625 7.56941406 4.8553125 7.01382813 4.265625 6.44140625 C2.80549218 4.99865596 1.39850702 3.5025626 0 2 C0 1.34 0 0.68 0 0 Z " fill="#C0C2C7" transform="translate(141,103)"/>
<path d="M0 0 C5.08101713 1.69367238 7.15965061 6.64910117 10 11 C10.4434375 11.66257812 10.886875 12.32515625 11.34375 13.0078125 C13.72345483 16.79834234 14.43451223 19.5462496 14 24 C13.67 24 13.34 24 13 24 C12.34 21.36 11.68 18.72 11 16 C10.34 16 9.68 16 9 16 C5.81010995 12.45226972 3.57692976 8.4881847 2 4 C1.34786461 2.65949948 0.68620031 1.32338632 0 0 Z " fill="#546675" transform="translate(141,70)"/>
<path d="M0 0 C0.99 0.33 1.98 0.66 3 1 C1.77937479 2.44475986 0.54807874 3.88050764 -0.6875 5.3125 C-1.37199219 6.11300781 -2.05648437 6.91351563 -2.76171875 7.73828125 C-7.53014156 12.55663519 -11.48688048 13.44804072 -18 14 C-14.74666826 10.18185372 -10.29838434 8.70736357 -5.8125 6.6953125 C-2.69635908 4.816972 -1.57730947 3.23129371 0 0 Z " fill="#74777A" transform="translate(148,170)"/>
<path d="M0 0 C0.33 0.66 0.66 1.32 1 2 C-0.76387341 6.17759492 -2.94409345 9.64836055 -6 13 C-6.66 13 -7.32 13 -8 13 C-8.12375 13.639375 -8.2475 14.27875 -8.375 14.9375 C-8.58125 15.618125 -8.7875 16.29875 -9 17 C-9.66 17.33 -10.32 17.66 -11 18 C-10.55225423 13.07479657 -9.58942458 11.29839016 -6 8 C-3.93309926 5.38226263 -1.9631946 2.69612058 0 0 Z " fill="#85898D" transform="translate(100,36)"/>
<path d="M0 0 C-0.29179234 3.50150804 -0.78286467 4.78286467 -3.3125 7.3125 C-6 9 -6 9 -10 9 C-8.5124715 4.98367305 -4.56813239 0 0 0 Z " fill="#EFE0AA" transform="translate(138,164)"/>
<path d="M0 0 C1.0725 0.2475 2.145 0.495 3.25 0.75 C3.58 2.07 3.91 3.39 4.25 4.75 C3.05375 4.5025 1.8575 4.255 0.625 4 C-2.71943147 3.55367907 -4.45118888 3.77921969 -7.25 5.6875 C-8.4875 6.7084375 -8.4875 6.7084375 -9.75 7.75 C-7.59522636 2.72219483 -5.81017022 -0.38734468 0 0 Z " fill="#707275" transform="translate(116.75,17.25)"/>
<path d="M0 0 C0.99 0.33 1.98 0.66 3 1 C4.05086948 3.76366247 4.11860688 6.39503741 4.09765625 9.328125 C4.09443359 10.12734375 4.09121094 10.9265625 4.08789062 11.75 C4.07951172 12.575 4.07113281 13.4 4.0625 14.25 C4.05798828 15.09046875 4.05347656 15.9309375 4.04882812 16.796875 C4.03707961 18.86461401 4.01914522 20.93231624 4 23 C3.67 23 3.34 23 3 23 C2.94465088 22.44538086 2.88930176 21.89076172 2.83227539 21.31933594 C2.57871893 18.7959083 2.32065495 16.27296117 2.0625 13.75 C1.97548828 12.87730469 1.88847656 12.00460938 1.79882812 11.10546875 C1.71181641 10.26113281 1.62480469 9.41679687 1.53515625 8.546875 C1.456604 7.77182617 1.37805176 6.99677734 1.29711914 6.19824219 C1.00997086 4.07376962 0.56205228 2.06703475 0 0 Z " fill="#D6D7D8" transform="translate(159,126)"/>
<path d="M0 0 C2.63067938 1.31533969 2.97269145 2.25444971 4 5 C4.1953125 8.234375 4.1953125 8.234375 4.125 11.75 C4.10695312 12.92046875 4.08890625 14.0909375 4.0703125 15.296875 C4.03550781 16.63492188 4.03550781 16.63492188 4 18 C3.67 18 3.34 18 3 18 C2.67 14.37 2.34 10.74 2 7 C1.34 7 0.68 7 0 7 C0 4.69 0 2.38 0 0 Z " fill="#EEDDA6" transform="translate(145,129)"/>
<path d="M0 0 C0.99 0.33 1.98 0.66 3 1 C3 1.99 3 2.98 3 4 C3.99 4.33 4.98 4.66 6 5 C6 5.99 6 6.98 6 8 C6.66 8 7.32 8 8 8 C8.33 9.98 8.66 11.96 9 14 C6.35247996 11.42215154 4.05567935 9.08351902 2 6 C2 4.68 2 3.36 2 2 C1.34 2 0.68 2 0 2 C0 1.34 0 0.68 0 0 Z " fill="#C8CBCC" transform="translate(149,63)"/>
<path d="M0 0 C0.33 0.66 0.66 1.32 1 2 C0.01 1.814375 -0.98 1.62875 -2 1.4375 C-5.05716223 1.38123321 -5.91413596 1.92339434 -8.24609375 4.00390625 C-10.24633795 6.28225927 -12.15977916 8.59098363 -14 11 C-14 7.91598626 -13.65790902 6.96336044 -12.1875 4.375 C-11.85105469 3.76398437 -11.51460938 3.15296875 -11.16796875 2.5234375 C-8.46933928 -0.99651398 -4.00741298 -0.07561157 0 0 Z " fill="#C0C2C4" transform="translate(119,16)"/>
<path d="M0 0 C1 2 1 2 0.3984375 4.20703125 C-1.70644051 9.56563291 -3.55576917 13.29647431 -8 17 C-7.67 15.02 -7.34 13.04 -7 11 C-6.01 11 -5.02 11 -4 11 C-3.87882813 10.28972656 -3.75765625 9.57945312 -3.6328125 8.84765625 C-3.46523437 7.92855469 -3.29765625 7.00945312 -3.125 6.0625 C-2.96257812 5.14597656 -2.80015625 4.22945312 -2.6328125 3.28515625 C-2.42398438 2.53105469 -2.21515625 1.77695313 -2 1 C-1.34 0.67 -0.68 0.34 0 0 Z " fill="#74787C" transform="translate(159,153)"/>
<path d="M0 0 C0.66 0.33 1.32 0.66 2 1 C0.44298069 5.67105792 -2.08447373 9.08705685 -5 13 C-6.38308641 10.23382717 -5.90563946 8.92591209 -5 6 C-3 3.8125 -3 3.8125 -1 2 C-0.67 1.34 -0.34 0.68 0 0 Z " fill="#D1D4D8" transform="translate(97,35)"/>
<path d="M0 0 C3.25836697 3.02562647 5.81492325 6.11541911 8 10 C7.60546875 12.1875 7.60546875 12.1875 7 14 C6.0106909 12.61133677 5.03396922 11.21370149 4.0625 9.8125 C3.51722656 9.03519531 2.97195312 8.25789063 2.41015625 7.45703125 C0.9543711 4.92049701 0.40386565 2.8781818 0 0 Z " fill="#9C9FA2" transform="translate(121,20)"/>
<path d="M0 0 C4.29 2.31 8.58 4.62 13 7 C8.8432441 8.03918898 8.35792395 8.10184155 4.8125 6.3125 C4.11769531 5.97863281 3.42289062 5.64476562 2.70703125 5.30078125 C1 4 1 4 0 0 Z " fill="#C8CACD" transform="translate(71,177)"/>
<path d="M0 0 C0.99 0.495 0.99 0.495 2 1 C2.625 3.5625 2.625 3.5625 3 6 C3.99 6.33 4.98 6.66 6 7 C6.33 8.98 6.66 10.96 7 13 C3.17670879 9.57916049 1.22400931 7.0073108 0 2 C0 1.34 0 0.68 0 0 Z " fill="#7F8486" transform="translate(58,156)"/>
<path d="M0 0 C1.48046875 1.03125 1.48046875 1.03125 3 3 C3.2719239 5.59643464 3.37409761 7.91290049 3.3125 10.5 C3.31572266 11.17675781 3.31894531 11.85351562 3.32226562 12.55078125 C3.28230168 16.23473014 3.09194697 17.86207954 1 21 C1.01740234 19.7315625 1.01740234 19.7315625 1.03515625 18.4375 C1.08489687 12.18439382 0.96940246 6.17994069 0 0 Z " fill="#81765D" transform="translate(149,130)"/>
<path d="M0 0 C6.98629919 -0.50604984 11.20200116 -0.0333905 17 4 C15.375 4.6875 15.375 4.6875 13 5 C11 4 9 3 7 2 C2.84105616 1.67105335 2.84105616 1.67105335 -1 3 C-0.67 2.01 -0.34 1.02 0 0 Z " fill="#5B5C4B" transform="translate(113,103)"/>
<path d="M0 0 C0.33 0.66 0.66 1.32 1 2 C-0.97764782 6.06516496 -3.7373124 8.91367389 -7 12 C-6.1875 8.5625 -6.1875 8.5625 -5 5 C-4.01 4.67 -3.02 4.34 -2 4 C-0.79117904 1.99983534 -0.79117904 1.99983534 0 0 Z " fill="#617485" transform="translate(85,76)"/>
<path d="M0 0 C1 3 1 3 -0.125 5.375 C-2.17513056 8.24518278 -4.44405229 10.57512653 -7 13 C-7.66 13.66 -8.32 14.32 -9 15 C-8.3735459 11.88861131 -7.32467593 9.6106267 -5.625 6.9375 C-5.20476562 6.26589844 -4.78453125 5.59429687 -4.3515625 4.90234375 C-3.04048427 3.05698219 -1.64747408 1.54631339 0 0 Z " fill="#586976" transform="translate(103,47)"/>
<path d="M0 0 C0.625 1.8125 0.625 1.8125 1 4 C0.01 5.485 0.01 5.485 -1 7 C-0.68493373 10.14221967 -0.68493373 10.14221967 0 13 C-1.32 12.34 -2.64 11.68 -4 11 C-3.56179109 6.44262737 -3.14958831 3.42346555 0 0 Z " fill="#5E7777" transform="translate(65,89)"/>
<path d="M0 0 C0.71484375 1.734375 0.71484375 1.734375 1 4 C-0.43359375 6.140625 -0.43359375 6.140625 -2.4375 8.25 C-3.09621094 8.95640625 -3.75492187 9.6628125 -4.43359375 10.390625 C-4.95050781 10.92171875 -5.46742187 11.4528125 -6 12 C-6 8.36804504 -5.04546845 7.25286089 -3 4.3125 C-2.443125 3.50425781 -1.88625 2.69601563 -1.3125 1.86328125 C-0.879375 1.24839844 -0.44625 0.63351563 0 0 Z " fill="#607475" transform="translate(73,77)"/>
<path d="M0 0 C0.66 0 1.32 0 2 0 C2.5775 0.763125 3.155 1.52625 3.75 2.3125 C6.24860904 5.29694969 8.46103287 6.47180965 12 8 C12 8.66 12 9.32 12 10 C6.33012418 8.65002957 3.74337399 6.2781417 0 2 C0 1.34 0 0.68 0 0 Z " fill="#7D8286" transform="translate(67,171)"/>
<path d="M0 0 C3.98069267 2.87494471 6.43571997 5.82117329 9 10 C5.66670261 8.82884146 3.13594373 7.88352404 1 5 C0.3125 2.3125 0.3125 2.3125 0 0 Z " fill="#CBD0D4" transform="translate(62,167)"/>
<path d="M0 0 C2.9297008 2.82506863 5.50174717 5.78796065 8 9 C7.67 9.66 7.34 10.32 7 11 C4.09197539 8.78071806 2.04687238 7.07030857 0 4 C0 2.68 0 1.36 0 0 Z " fill="#8399AD" transform="translate(137,66)"/>
<path d="M0 0 C0.99 0 1.98 0 3 0 C3 0.99 3 1.98 3 3 C1.46875 4.38671875 1.46875 4.38671875 -0.5 5.6875 C-1.47453125 6.34298828 -1.47453125 6.34298828 -2.46875 7.01171875 C-2.9740625 7.33785156 -3.479375 7.66398437 -4 8 C-2.25 2.25 -2.25 2.25 0 0 Z " fill="#89A0B2" transform="translate(114,33)"/>
<path d="M0 0 C0.33 0.66 0.66 1.32 1 2 C-0.59617578 5.83082186 -1.49984971 7.66656647 -5 10 C-4.49701212 5.59885603 -2.91227269 3.28804981 0 0 Z " fill="#686C70" transform="translate(100,36)"/>
<path d="M0 0 C0.8125 1.6875 0.8125 1.6875 1 4 C-1.0625 6.75 -1.0625 6.75 -4 9 C-7.3125 9.3125 -7.3125 9.3125 -10 9 C-10 8.67 -10 8.34 -10 8 C-9.0925 7.79375 -8.185 7.5875 -7.25 7.375 C-3.24267224 5.6795921 -2.10515339 3.72450216 0 0 Z " fill="#9E9FA1" transform="translate(88,52)"/>
<path d="M0 0 C0.66 0.33 1.32 0.66 2 1 C-0.35468455 3.72647685 -2.5408417 4.98756342 -6 6 C-8.3125 5.625 -8.3125 5.625 -10 5 C-7.00937337 3.00624891 -4.39085683 2.10571418 -1 1 C-0.67 0.67 -0.34 0.34 0 0 Z " fill="#7B7561" transform="translate(133,173)"/>
<path d="M0 0 C2.52259061 1.97420135 2.9929808 2.96745642 3.6875 6.1875 C3.790625 7.115625 3.89375 8.04375 4 9 C3.01 8.67 2.02 8.34 1 8 C0.67 5.36 0.34 2.72 0 0 Z " fill="#716A55" transform="translate(67,154)"/>
<path d="M0 0 C1.43861294 0.08746284 2.87597508 0.19565348 4.3125 0.3125 C5.11300781 0.37050781 5.91351563 0.42851563 6.73828125 0.48828125 C9.36272334 1.08206694 10.30820672 1.95780294 12 4 C7.80530429 3.40075776 3.99000166 2.42500059 0 1 C0 0.67 0 0.34 0 0 Z " fill="#8A8764" transform="translate(114,104)"/>
<path d="M0 0 C1 2 1 2 0.3125 4.5 C-1.15567038 7.29651501 -2.09303901 7.93411431 -5 9 C-4.34 7.35 -3.68 5.7 -3 4 C-2.34 4 -1.68 4 -1 4 C-0.67 2.68 -0.34 1.36 0 0 Z " fill="#8FAAC0" transform="translate(97,60)"/>
<path d="M0 0 C0.66 0 1.32 0 2 0 C3.6875 1.75 3.6875 1.75 5 4 C4.6875 6.25 4.6875 6.25 4 8 C0 2.25 0 2.25 0 0 Z " fill="#5C7083" transform="translate(132,56)"/>
</svg>
